<svg width="189" height="80" viewBox="0 0 189 80" fill="none" xmlns="http://www.w3.org/2000/svg">
<g clip-path="url(#clip0_454_1430)">
<path d="M10.9011 66.7086H10.3254C10.6571 67.2101 10.8308 67.7969 10.8244 68.3952C10.8101 69.2358 10.4663 70.0385 9.86475 70.6356C9.56507 70.9266 9.21383 71.1612 8.82838 71.3279C8.42411 71.4977 7.98848 71.5834 7.5489 71.5796C7.1095 71.5816 6.67423 71.496 6.26943 71.3279C5.88397 71.1612 5.53274 70.9266 5.23305 70.6356C4.93065 70.3511 4.69109 70.0083 4.52934 69.6287C4.35668 69.231 4.26956 68.8025 4.27345 68.37C4.27017 68.0675 4.31331 67.7662 4.40139 67.4764C4.4935 67.1989 4.61801 66.9328 4.77244 66.6834H4.20947V64.4682H6.53812V62.9578H8.82838V64.4682H10.9011V66.7086ZM7.57449 69.3392C7.69791 69.3392 7.81992 69.3134 7.93242 69.2635C8.04493 69.2136 8.14535 69.1407 8.22702 69.0497C8.31757 68.9658 8.38936 68.8643 8.43782 68.7516C8.48629 68.6389 8.51036 68.5175 8.50851 68.3952C8.51158 68.269 8.48818 68.1435 8.43975 68.0265C8.39131 67.9096 8.3189 67.8037 8.22702 67.7155C8.14322 67.628 8.04209 67.5583 7.92987 67.5107C7.81765 67.4631 7.69671 67.4385 7.57449 67.4386C7.44739 67.4386 7.32155 67.4635 7.20429 67.5117C7.08702 67.5599 6.98066 67.6306 6.89138 67.7196C6.80211 67.8086 6.73169 67.9141 6.68423 68.0301C6.63676 68.1461 6.61319 68.2702 6.61489 68.3952C6.62136 68.6436 6.72454 68.88 6.90312 69.0557C7.0817 69.2313 7.32203 69.3328 7.57449 69.3392ZM14.6372 77.2435C14.6398 77.39 14.6129 77.5354 14.558 77.6715C14.5031 77.8076 14.4213 77.9317 14.3173 78.0365C14.0972 78.245 13.804 78.3621 13.4985 78.3637H12.3725V75.0912C12.3832 75.0161 12.3759 74.9395 12.3514 74.8675C12.3268 74.7956 12.2857 74.7302 12.2311 74.6765C12.1766 74.6229 12.1101 74.5824 12.037 74.5582C11.9638 74.5341 11.886 74.527 11.8096 74.5374H8.94353V72.3096H14.65L14.6372 77.2435ZM16.6204 69.1252H14.9571V71.6425H12.6796V64.4682H14.9443V66.9855H16.6204V69.1252Z" fill="#E9E7E6"/>
<path d="M17.8999 71.6426V63.8389H20.2158V65.45H21.6744V63.8389H22.8259C22.9776 63.8377 23.128 63.866 23.2685 63.9222C23.409 63.9783 23.5369 64.0612 23.6447 64.1662C23.7555 64.2699 23.8433 64.3949 23.9027 64.5335C23.9622 64.6721 23.992 64.8213 23.9902 64.9717V71.6426H17.8999ZM21.6744 67.7659H20.1902V69.3896H21.6488L21.6744 67.7659ZM27.9694 71.6426H25.7047V64.4682H27.9694V71.6426Z" fill="#E9E7E6"/>
<path d="M37.3991 66.91V69.2385H34.597V71.9824H32.2939V69.2385H29.4663V66.91H32.2939V64.1536H34.597V66.91H37.3991Z" fill="#E9E7E6"/>
<path d="M46.6881 71.3404V73.5682H38.8577V71.3404H39.7405V69.1252H42.0052V71.3153H42.7089V69.1252H44.385V67.275C44.3956 67.1982 44.3879 67.12 44.3627 67.0465C44.3375 66.9731 44.2954 66.9063 44.2397 66.8515C44.184 66.7967 44.1161 66.7553 44.0415 66.7305C43.9668 66.7057 43.8873 66.6982 43.8092 66.7086H38.9472V64.4808H46.6241V69.0371C46.6275 69.1841 46.6009 69.3302 46.5457 69.4668C46.4905 69.6034 46.4079 69.7277 46.3028 69.8323C46.1977 69.9368 46.0723 70.0195 45.9341 70.0753C45.7958 70.1311 45.6476 70.159 45.4981 70.1573H44.9608V71.3404H46.6881Z" fill="#E9E7E6"/>
<path d="M49.055 74.3361V73.5809H47.929V71.3405H55.7594V73.5809H54.7358V74.3361H55.5931V78.8924C55.5969 79.1879 55.482 79.4729 55.2732 79.6853C55.1686 79.791 55.0431 79.8746 54.9045 79.9309C54.7659 79.9871 54.6171 80.015 54.4671 80.0126H53.3412V77.1303C53.3518 77.0535 53.3441 76.9753 53.3189 76.9018C53.2937 76.8284 53.2516 76.7616 53.1959 76.7068C53.1402 76.652 53.0723 76.6106 52.9977 76.5858C52.923 76.561 52.8435 76.5535 52.7654 76.5639H47.8267V74.3361H49.055ZM51.8186 70.0566C51.3421 70.056 50.8706 69.9622 50.4313 69.7807C49.992 69.5992 49.5937 69.3336 49.2597 68.9994C48.9283 68.6743 48.6633 68.2898 48.4792 67.8666C48.289 67.4248 48.1932 66.9492 48.1977 66.4695C48.192 65.9937 48.2879 65.522 48.4792 65.085C48.6633 64.6618 48.9283 64.2772 49.2597 63.9522C49.5877 63.6291 49.9738 63.3688 50.3984 63.1844C51.308 62.8152 52.3292 62.8152 53.2388 63.1844C53.6655 63.3718 54.0553 63.6317 54.3904 63.9522C54.7218 64.2772 54.9867 64.6618 55.1708 65.085C55.3622 65.522 55.4581 65.9937 55.4523 66.4695C55.4569 66.9492 55.3611 67.4248 55.1708 67.8666C54.9867 68.2898 54.7218 68.6743 54.3904 68.9994C54.0588 69.324 53.6682 69.5844 53.2388 69.7672C52.7906 69.9582 52.3072 70.0568 51.8186 70.0566ZM51.8186 65.4122C51.5324 65.4122 51.2577 65.5232 51.0541 65.7211C50.8505 65.919 50.7344 66.1879 50.7311 66.4695C50.7332 66.7527 50.848 67.0238 51.0509 67.2247C51.2564 67.4209 51.5323 67.5294 51.8186 67.5268C51.9587 67.5292 52.0978 67.5037 52.2275 67.4518C52.3573 67.3998 52.475 67.3226 52.5735 67.2247C52.6763 67.1269 52.7578 67.0095 52.8128 66.8796C52.8678 66.7497 52.8952 66.6102 52.8934 66.4695C52.8901 66.1901 52.7758 65.9231 52.5749 65.7255C52.3741 65.5279 52.1026 65.4155 51.8186 65.4122ZM51.3196 74.3361H52.4456V73.5683H51.294L51.3196 74.3361Z" fill="#E9E7E6"/>
<path d="M164.336 67.124V47.4009H156.467V67.124C156.467 69.1769 157.296 71.1458 158.772 72.5975C160.247 74.0491 162.249 74.8647 164.336 74.8647H183.016V67.124H164.336Z" fill="white"/>
<path d="M188.889 5.48773H181.02V47.8792H188.889V5.48773Z" fill="white"/>
<path d="M163.133 24.7955V17.0547H139.872V24.7955H141.778V33.606H139.872V41.4349H163.133V33.669H161.201V24.8584L163.133 24.7955ZM153.345 33.606H149.686V24.7955H153.383L153.345 33.606Z" fill="white"/>
<path d="M171.539 28.0176H167.125V35.7583H171.539V47.8792H179.459V5.43738H171.539V28.0176Z" fill="white"/>
<path d="M120.962 50.7238C118.431 50.7238 115.957 51.4619 113.853 52.845C111.749 54.228 110.109 56.1937 109.141 58.4936C108.172 60.7935 107.919 63.3242 108.413 65.7658C108.906 68.2073 110.125 70.4501 111.914 72.2103C113.704 73.9706 115.983 75.1693 118.465 75.655C120.947 76.1406 123.52 75.8914 125.858 74.9387C128.196 73.9861 130.194 72.3728 131.6 70.303C133.006 68.2331 133.756 65.7997 133.756 63.3103C133.756 59.9721 132.408 56.7707 130.009 54.4103C127.609 52.0498 124.355 50.7238 120.962 50.7238ZM120.962 68.0176C120.013 68.0152 119.087 67.7362 118.299 67.2161C117.512 66.6959 116.899 65.9579 116.538 65.0952C116.177 64.2326 116.083 63.2839 116.27 62.3692C116.457 61.4544 116.915 60.6146 117.586 59.9558C118.258 59.2969 119.113 58.8486 120.043 58.6675C120.973 58.4864 121.937 58.5806 122.813 58.9383C123.689 59.2959 124.438 59.9008 124.965 60.6767C125.491 61.4527 125.772 62.3647 125.772 63.2977C125.769 64.5507 125.261 65.7512 124.359 66.636C123.457 67.5208 122.235 68.0177 120.962 68.0176Z" fill="white"/>
<path d="M82.0911 67.124V49.6161H74.1968V67.124C74.1968 68.1405 74.4003 69.1471 74.7958 70.0862C75.1912 71.0254 75.7708 71.8787 76.5015 72.5975C77.2322 73.3163 78.0996 73.8864 79.0543 74.2754C80.009 74.6645 81.0322 74.8647 82.0656 74.8647H100.759V67.124H82.0911Z" fill="white"/>
<path d="M91.2776 8.77283V14.4997H83.7543V8.77283H75.8855V27.9547C75.8889 30.0066 76.719 31.9736 78.1939 33.4245C79.6689 34.8755 81.6684 35.6921 83.7543 35.6954H91.2776C93.3623 35.6954 95.3618 34.8816 96.8371 33.4327C98.3124 31.9837 99.143 30.0181 99.1464 27.9673V8.77283H91.2776ZM91.2776 27.9547H83.7543V22.2404H91.2776V27.9547Z" fill="white"/>
<path d="M124.877 38.6281V34.2857H117.008V38.6281H107.335V46.4191H134.549V38.6281H124.877Z" fill="white"/>
<path d="M91.7638 45.2612V49.6035H83.895V45.2612H74.2222V37.4701H101.437V45.2612H91.7638Z" fill="white"/>
<path d="M120.961 14.6381C118.73 14.6307 116.547 15.2746 114.689 16.4885C112.83 17.7024 111.379 19.4316 110.52 21.4572C109.661 23.4827 109.432 25.7134 109.863 27.8669C110.293 30.0204 111.364 31.9998 112.939 33.5543C114.514 35.1089 116.522 36.1688 118.71 36.5997C120.897 37.0306 123.166 36.8132 125.228 35.9751C127.29 35.1369 129.053 33.7157 130.293 31.8913C131.533 30.067 132.195 27.9216 132.195 25.7269C132.199 22.7915 131.017 19.9748 128.911 17.8956C126.805 15.8164 123.945 14.6448 120.961 14.6381ZM120.961 29.0119C120.302 29.0095 119.657 28.8147 119.11 28.4522C118.562 28.0897 118.136 27.5758 117.885 26.9753C117.635 26.3748 117.57 25.7147 117.701 25.0783C117.831 24.4419 118.15 23.8577 118.617 23.3995C119.085 22.9414 119.68 22.6297 120.327 22.504C120.975 22.3783 121.646 22.4441 122.255 22.6931C122.865 22.9421 123.385 23.3631 123.752 23.9031C124.118 24.443 124.314 25.0777 124.314 25.7269C124.31 26.5993 123.956 27.4348 123.327 28.0505C122.699 28.6663 121.848 29.012 120.961 29.0119Z" fill="white"/>
<path d="M124.877 9.76716V4.55634H117.008V9.76716H109.318V17.5582H132.579V9.76716H124.877Z" fill="white"/>
<path d="M59.9689 29.5028C59.9689 35.3379 58.2099 41.042 54.9145 45.8937C51.619 50.7454 46.9351 54.5269 41.455 56.7599C35.9749 58.9929 29.9447 59.5771 24.127 58.4388C18.3094 57.3004 12.9655 54.4905 8.7712 50.3645C4.5769 46.2384 1.72055 40.9815 0.563341 35.2585C-0.593865 29.5356 5.52442e-05 23.6035 2.26999 18.2126C4.53993 12.8216 8.38394 8.21394 13.3159 4.97212C18.2479 1.73031 24.0463 0 29.978 0C37.932 0 45.5603 3.10833 51.1847 8.64118C56.8091 14.174 59.9689 21.6782 59.9689 29.5028Z" fill="#E9E7E6"/>
<mask id="mask0_454_1430" style="mask-type:luminance" maskUnits="userSpaceOnUse" x="-1" y="0" width="61" height="60">
<path d="M-0.0129367 29.5028C-0.0129367 35.3379 1.746 41.042 5.04144 45.8937C8.33688 50.7454 13.0208 54.5269 18.5009 56.7599C23.9811 58.9929 30.0112 59.5771 35.8289 58.4388C41.6465 57.3004 46.9904 54.4905 51.1847 50.3645C55.379 46.2384 58.2354 40.9815 59.3926 35.2585C60.5498 29.5356 59.9559 23.6035 57.6859 18.2126C55.416 12.8217 51.572 8.21394 46.64 4.97213C41.708 1.73031 35.9096 2.68738e-06 29.978 2.68738e-06C26.039 -0.00165146 22.1384 0.760333 18.4989 2.2424C14.8595 3.72447 11.5527 5.89757 8.76744 8.63749C5.98219 11.3774 3.77315 14.6304 2.26656 18.2106C0.759971 21.7908 -0.0146182 25.628 -0.0129367 29.5028Z" fill="white"/>
</mask>
<g mask="url(#mask0_454_1430)">
<g style="mix-blend-mode:multiply">
<mask id="mask1_454_1430" style="mask-type:luminance" maskUnits="userSpaceOnUse" x="22" y="12" width="16" height="16">
<path d="M37.8211 12.5488H22.8257V27.3002H37.8211V12.5488Z" fill="white"/>
</mask>
<g mask="url(#mask1_454_1430)">
<mask id="mask2_454_1430" style="mask-type:luminance" maskUnits="userSpaceOnUse" x="22" y="12" width="16" height="16">
<path d="M30.3178 12.561L22.8267 19.9302L30.3178 27.2995L37.8089 19.9302L30.3178 12.561Z" fill="white"/>
</mask>
<g mask="url(#mask2_454_1430)">
<path d="M28.5323 14.4619L24.6938 21.8125H35.8509L32.0124 14.4619C31.8445 14.1365 31.5883 13.8631 31.2721 13.6722C30.9559 13.4813 30.5922 13.3802 30.2212 13.3802C29.8502 13.3802 29.4864 13.4813 29.1703 13.6722C28.8541 13.8631 28.5978 14.1365 28.4299 14.4619" fill="#A8BFBF"/>
</g>
</g>
</g>
<path d="M26.6003 32.6369H19.1665V59.5217H26.6003V32.6369Z" fill="#BB296A"/>
<path d="M34.0341 32.6369H26.6003V59.5217H34.0341V32.6369Z" fill="#DE357A"/>
<path d="M41.4806 32.6369H34.0469V59.5217H41.4806V32.6369Z" fill="#E64B9A"/>
<path d="M32.1149 14.4619L35.9533 21.8125H24.7451L28.5835 14.4619C28.7515 14.1365 29.0077 13.8631 29.3239 13.6722C29.6401 13.4813 30.0038 13.3802 30.3748 13.3802C30.7458 13.3802 31.1096 13.4813 31.4257 13.6722C31.7419 13.8631 31.9982 14.1365 32.1661 14.4619" fill="#DE357A"/>
<path d="M19.1665 32.6369H26.0501L28.1868 21.8124H24.745L19.1665 32.6369Z" fill="#EFAF84"/>
<path d="M26.05 32.6369H41.4805L35.902 21.8124H28.1868L26.05 32.6369Z" fill="#F5C7A3"/>
</g>
</g>
<defs>
<clipPath id="clip0_454_1430">
<rect width="188.889" height="80" fill="white"/>
</clipPath>
</defs>
</svg>
