<svg width="221" height="33" viewBox="0 0 221 33" fill="none" xmlns="http://www.w3.org/2000/svg">
<g clip-path="url(#clip0_930_3909)">
<path d="M0 32.2311H32.0833C15.8125 -4.21851 15.5625 -1.35076 0 32.2311ZM16.0417 0C17.0833 0 17.9375 0.831234 17.9375 1.87028C17.9375 2.88854 17.0833 3.74055 16.0417 3.74055C15 3.74055 14.1458 2.90932 14.1458 1.87028C14.1458 0.831234 15 0 16.0417 0Z" fill="#ED1C24"/>
<path d="M4.1875 32.2311H20.2292C12.0833 15.3155 11.9583 16.6455 4.1875 32.2311ZM12.2083 16.0636C13 16.0636 13.625 16.687 13.625 17.4559C13.625 18.2248 12.9792 18.8482 12.2083 18.8482C11.4167 18.8482 10.7917 18.2248 10.7917 17.4559C10.7917 16.687 11.4167 16.0636 12.2083 16.0636Z" fill="#00AEEF"/>
<path d="M22.2917 19.6794C22.9167 19.6794 23.4375 20.1782 23.4375 20.8016C23.4375 21.425 22.9167 21.9238 22.2917 21.9238C21.6667 21.9238 21.1458 21.425 21.1458 20.8016C21.1458 20.1782 21.6458 19.6794 22.2917 19.6794ZM16.375 32.2311H28.2083C22.2083 19.7626 22.1042 20.7393 16.375 32.2311Z" fill="#FFDB00"/>
<path d="M205.229 15.8973V13.9232C205.229 13.7569 205.292 13.5491 205.438 13.3205C205.583 13.0711 205.833 12.9465 206.188 12.9465H209.729C210.271 12.9465 210.75 12.9049 211.167 12.801C211.583 12.6971 211.917 12.5932 212.167 12.4685C212.438 12.3438 212.625 12.2191 212.771 12.1152C212.896 12.0113 212.979 11.949 212.979 11.949V14.2556C212.979 14.4427 212.938 14.5881 212.875 14.7336C212.812 14.8791 212.708 15.0038 212.604 15.1077C212.417 15.2739 212.104 15.4402 211.688 15.6272C211.271 15.8142 210.646 15.8973 209.833 15.8973M76.1459 15.8973V13.9232C76.1459 13.7569 76.2084 13.5491 76.3542 13.3205C76.5 13.0711 76.75 12.9465 77.1042 12.9465H80.6459C81.1875 12.9465 81.6667 12.9049 82.0834 12.801C82.5 12.6971 82.8333 12.5932 83.0833 12.4685C83.3542 12.3438 83.5417 12.2191 83.6875 12.1152C83.8125 12.0113 83.8959 11.949 83.8959 11.949V14.2556C83.8959 14.4427 83.8542 14.5881 83.7917 14.7336C83.7292 14.8791 83.625 15.0038 83.5208 15.1077C83.3333 15.2739 83.0209 15.4402 82.6042 15.6272C82.1875 15.8142 81.5625 15.8973 80.75 15.8973H76.1459ZM51.3542 22.7135C50.8542 22.5264 50.0625 22.1108 48.9584 21.425C47.875 20.7601 47.3334 19.6379 47.3334 18.0378V17.6429H50.5834V14.9206H40.9792V17.6429H44.25V18.0378C44.25 19.4716 43.7709 20.573 42.7917 21.3419C41.8125 22.09 40.7917 22.6719 39.7292 23.0875L41.4792 25.3942C42.375 25.0617 43.2292 24.6045 44.0625 24.0019C44.8959 23.3992 45.4584 22.7966 45.7917 22.2147C46.1875 22.8589 46.7917 23.4408 47.6042 23.9187C48.4167 24.3967 49.1459 24.7708 49.8125 24.9994L51.3542 22.7135ZM169.938 30.9427V28.0749H162.583V24.0019H168.063V21.2796H157.292V14.6505H154.333V24.0227H159.583V28.0957H101.438V22.1939H98.4375V28.0957H96.9584V22.1939H93.9583V28.0957H90.3125V30.818L169.938 30.9427ZM186.875 25.0617V22.3602H179.542V21.0718H184.979V18.3703H174.312V17.0818H184.792V14.3388H171.25V21.051H176.417V22.3394H169.167V25.0409H186.875V25.0617ZM185.188 29.2802C185.188 28.1996 184.583 27.306 183.375 26.6203C182.167 25.9345 180.375 25.602 178 25.602C175.646 25.602 173.854 25.9345 172.646 26.6203C171.438 27.306 170.833 28.1996 170.833 29.2802C170.833 30.3608 171.438 31.2336 172.646 31.9402C173.854 32.6467 175.625 33 178 33C180.375 33 182.167 32.6467 183.375 31.9402C184.583 31.2336 185.188 30.34 185.188 29.2802ZM181.729 29.301C181.729 29.6958 181.417 29.9868 180.771 30.1946C180.125 30.4024 179.208 30.4855 178.021 30.4855C176.812 30.4855 175.896 30.3816 175.271 30.1738C174.646 29.966 174.333 29.6543 174.333 29.2594C174.333 28.8438 174.646 28.5529 175.271 28.3451C175.896 28.1373 176.812 28.0541 178.021 28.0541C179.208 28.0541 180.125 28.158 180.771 28.3658C181.417 28.5737 181.729 28.8854 181.729 29.301ZM202.854 23.6902C201.792 23.3992 200.479 22.7966 198.938 21.8407C197.396 20.8847 196.625 19.6795 196.625 18.204V17.9962H201.917V15.2531H188V17.9754H193.292V18.1832C193.292 19.5548 192.604 20.7185 191.229 21.716C189.854 22.6927 188.458 23.3577 187.063 23.6694L188.854 25.8721C189.792 25.6643 190.896 25.1864 192.167 24.4383C193.458 23.6694 194.375 22.8381 194.938 21.9238C195.646 22.9836 196.646 23.8772 197.958 24.5837C199.271 25.3111 200.292 25.7267 201.042 25.8721L202.854 23.6902ZM203.792 31.0881V28.3658H196.458V24.4798H193.438V28.3658H186.104V31.0881H203.792ZM214.708 16.6039H203.458V18.9313H214.708V16.6039ZM221 21.0718V18.3495H218.729V13.9232H215.771V24.7084H218.729V21.0926H221V21.0718ZM214.292 22.1316C214.292 21.3004 213.833 20.6146 212.896 20.0951C211.958 19.5755 210.708 19.3054 209.125 19.3054C207.604 19.3054 206.354 19.5755 205.354 20.1159C204.354 20.6562 203.854 21.3419 203.854 22.1732C203.854 22.9836 204.354 23.6902 205.354 24.272C206.354 24.8539 207.583 25.1448 209.083 25.1448C210.688 25.1448 211.958 24.8539 212.917 24.2928C213.833 23.6902 214.292 22.9836 214.292 22.1316ZM218.729 32.5428V25.4565H215.771V26.6618H208.875V25.4565H205.917V32.5428H218.729ZM211.167 22.1316C211.167 22.4225 210.979 22.6096 210.625 22.755C210.25 22.8797 209.75 22.942 209.104 22.942C208.458 22.942 207.938 22.8797 207.562 22.755C207.188 22.6303 207 22.4433 207 22.1524C207 21.8614 207.188 21.6744 207.562 21.5497C207.938 21.4458 208.458 21.3835 209.104 21.3835C209.75 21.3835 210.271 21.4458 210.625 21.5497C210.979 21.6744 211.167 21.8614 211.167 22.1316ZM215.771 30.0491H208.875V29.0308H215.771V30.0491ZM115.375 23.9395V15.5025H113.542V18.1001H111.458V15.5025H109.625V23.9395H115.375ZM118.854 14.5881H117V26.3085H118.854V14.5881ZM113.542 22.2355H111.458V19.8249H113.542V22.2355ZM129.875 21.5497V14.5881H128.021V17.1234H126.167V18.7651H128.021V21.5497H129.875ZM126.729 19.7418C126.417 19.6171 125.917 19.347 125.25 18.9106C124.563 18.4742 124.229 17.8923 124.229 17.165V16.9156H126.25V15.2116H120.271V16.9156H122.313V17.165C122.313 17.83 122 18.4118 121.396 18.8898C120.792 19.3677 120.146 19.7418 119.5 20.0119L120.583 21.5289C121.146 21.3419 121.688 21.051 122.208 20.6354C122.729 20.2198 123.104 19.8457 123.292 19.4716C123.542 19.8665 123.917 20.2198 124.417 20.5107C124.917 20.8016 125.354 21.0302 125.771 21.1757L126.729 19.7418ZM130.042 23.9603C130.042 23.2745 129.646 22.6927 128.854 22.2355C128.063 21.7783 127 21.5289 125.625 21.5289C124.25 21.5289 123.188 21.7575 122.396 22.2355C121.625 22.6927 121.229 23.2745 121.229 23.9603C121.229 24.6461 121.625 25.2279 122.396 25.6851C123.167 26.1631 124.25 26.3917 125.625 26.3917C126.979 26.3917 128.063 26.1631 128.854 25.6851C129.646 25.2279 130.042 24.6461 130.042 23.9603ZM128.021 23.9811C128.021 24.2097 127.792 24.4383 127.354 24.6045C126.917 24.7915 126.354 24.8747 125.646 24.8747C124.958 24.8747 124.375 24.7708 123.938 24.5837C123.5 24.3759 123.271 24.1681 123.271 23.9395C123.271 23.6902 123.5 23.4823 123.938 23.3369C124.375 23.1914 124.958 23.0875 125.646 23.0875C126.333 23.0875 126.917 23.1706 127.354 23.3577C127.792 23.5239 128.021 23.7317 128.021 23.9811ZM140.917 21.4874V19.7834H139.125C139.292 19.0976 139.417 18.3287 139.563 17.4767C139.688 16.6247 139.75 15.835 139.729 15.1077H131V16.8117H137.688C137.646 17.2689 137.583 17.7884 137.5 18.3495C137.396 18.9106 137.313 19.4093 137.25 19.7834H129.896V21.4874H132.542V26.3085H134.396V21.4874H136.479V26.3085H138.333V21.4874H140.917ZM150.958 14.5881H149.104V21.5705H150.958V14.5881ZM147.958 19.9288C147.354 19.721 146.792 19.4301 146.271 19.0145C145.75 18.6196 145.479 17.9962 145.479 17.1857V16.8948H147.5V15.1908H141.521V16.8948H143.562V17.1857C143.562 18.1001 143.229 18.7651 142.583 19.2015C141.938 19.6379 141.333 19.9496 140.771 20.1574L141.917 21.6121C142.313 21.5289 142.771 21.3004 143.292 20.9263C143.813 20.5522 144.229 20.1366 144.521 19.6587C144.875 20.1366 145.292 20.5107 145.708 20.7808C146.146 21.051 146.542 21.238 146.896 21.3627L147.958 19.9288ZM150.917 26.3085V22.0277H142.521V23.7317H149.063V26.3085H150.917ZM56.4375 27.5554V13.9232H53.4792V18.1001H50.5V20.9679H53.4792V27.5762H56.4375V27.5554ZM56.8333 32.3142V29.5919H46.1875V25.9968H43.2292V32.335H56.8333V32.3142ZM74.1667 23.5655V20.8432H71.4584C71.7709 19.908 72 18.869 72.1667 17.7261C72.3334 16.5831 72.4375 15.4817 72.4792 14.4635H58.2084V17.1857H69.1667C69.1042 17.6845 69.0208 18.2871 68.9167 18.9729C68.8125 19.6795 68.6875 20.3029 68.5417 20.8432H56.4584V23.5655H63.3334V25.9968H58.3334V28.7191H69.0834V32.7506H72.0417V25.9968H66.4584V23.5655H74.1667ZM85.0625 16.7701H73.8125V19.2223H85.0625V16.7701ZM91.3542 21.6744V18.8067H89.0834V13.9232H86.125V25.9553H89.0834V21.6744H91.3542ZM84.5625 22.6719C84.5625 21.7368 84.0833 20.9886 83.1042 20.4483C82.125 19.908 80.9167 19.6171 79.4792 19.6171C78.125 19.6171 76.9167 19.8873 75.875 20.4483C74.8334 21.0094 74.2917 21.7575 74.2917 22.6927C74.2917 23.5863 74.8125 24.3551 75.8542 24.9786C76.8959 25.602 78.0834 25.8929 79.4167 25.8929C80.9167 25.8929 82.1458 25.5812 83.1042 24.9786C84.0833 24.3759 84.5625 23.607 84.5625 22.6719ZM89.1042 32.7506V26.5995H75.75V29.2179H86.0208V32.7298H89.1042V32.7506ZM81.4584 22.6719C81.4584 22.9836 81.25 23.2122 80.8542 23.3784C80.4584 23.5239 79.9792 23.607 79.4792 23.607C78.9792 23.607 78.5209 23.5239 78.1042 23.3784C77.6667 23.233 77.4583 23.0044 77.4583 22.6927C77.4583 22.4017 77.6875 22.1732 78.125 22.0277C78.5625 21.8822 79.0209 21.7991 79.5 21.7991C80 21.7991 80.4584 21.8614 80.875 22.0069C81.25 22.1524 81.4584 22.3602 81.4584 22.6719ZM106.208 15.7727H92.0209V18.4949H103.021C102.958 19.8873 102.854 21.1965 102.688 22.4225C102.521 23.6486 102.333 24.8539 102.104 26.0176H105.042C105.438 24.4383 105.729 22.755 105.896 20.9886C106.042 19.2431 106.146 17.4975 106.208 15.7727Z" fill="black"/>
<path d="M102.292 7.91745C102.771 7.91745 103.167 8.00058 103.437 8.14604C103.687 8.29151 103.812 8.45776 103.812 8.66556C103.812 8.87337 103.687 9.01884 103.437 9.1643C103.167 9.30977 102.792 9.39289 102.292 9.39289C101.812 9.39289 101.417 9.30977 101.167 9.1643C100.937 9.03962 100.812 8.87337 100.812 8.66556C100.812 8.45776 100.937 8.27073 101.167 8.14604C101.417 7.9798 101.792 7.91745 102.292 7.91745ZM102.312 6.73294C101.333 6.73294 100.562 6.94075 100 7.33559C99.4792 7.68886 99.2291 8.14604 99.2291 8.66556C99.2291 9.18509 99.4792 9.62148 100 9.99554C100.583 10.3904 101.354 10.5982 102.312 10.5982C103.292 10.5982 104.062 10.3904 104.625 9.99554C105.146 9.64226 105.396 9.18509 105.396 8.66556C105.396 8.14604 105.146 7.68886 104.625 7.33559C104.042 6.91997 103.271 6.73294 102.312 6.73294ZM102.292 2.18194V6.44201H103.5V5.00813H104.062V6.44201H105.312V2.18194H104.062V3.61582H103.5V2.18194H102.292ZM101.833 2.26506H98.7917V5.19516C98.7917 5.56922 98.875 5.83937 99.0416 6.04718C99.2291 6.25498 99.4791 6.33811 99.8125 6.33811H101.812V2.26506H101.833ZM100.542 4.94579H100.021V3.65738H100.542V4.94579ZM94.0625 7.37715H92.375V9.18509C92.375 9.55914 92.4583 9.82929 92.6458 10.0371C92.8125 10.2449 93.0833 10.328 93.4166 10.328H98.375V8.93571H94.0625V7.37715ZM96.1041 5.09126C96.125 4.98735 96.1458 4.88345 96.1666 4.75876C96.1875 4.65486 96.1875 4.55095 96.1875 4.44705V4.34315H96.6042V5.09126H96.1041ZM96.6042 2.93005H95.9375V3.3041C95.7708 2.93005 95.5208 2.61833 95.1875 2.41053C94.8333 2.18194 94.4166 2.05725 93.9375 2.05725C93.2291 2.05725 92.6875 2.30662 92.2708 2.80536C91.8958 3.26254 91.7083 3.80284 91.7083 4.44705C91.7083 5.09126 91.8958 5.63156 92.2708 6.08874C92.6875 6.58748 93.2291 6.83685 93.9375 6.83685C94.4166 6.83685 94.8333 6.71216 95.1875 6.46279C95.5208 6.2342 95.75 5.94327 95.9166 5.56922V6.48357H96.5833V8.02136H98.2708V2.20272H96.5833V2.93005H96.6042ZM93.9583 3.26254C94.1666 3.26254 94.3333 3.38723 94.4583 3.61582C94.5625 3.82362 94.625 4.11456 94.625 4.44705C94.625 4.77954 94.5625 5.04969 94.4583 5.27828C94.3333 5.50687 94.1666 5.63156 93.9583 5.63156C93.75 5.63156 93.5833 5.50687 93.4791 5.27828C93.375 5.04969 93.3125 4.77954 93.3125 4.44705C93.3125 4.11456 93.375 3.82362 93.4791 3.61582C93.5833 3.38723 93.75 3.26254 93.9583 3.26254ZM91.5833 8.43697H85.0625V9.97476H91.5833V8.43697ZM91.75 5.73546C90.9791 5.50687 90.375 5.1536 89.9166 4.67564C89.4166 4.11456 89.1458 3.38723 89.1458 2.51443V2.18194H87.4791V2.51443C87.4791 3.38723 87.2291 4.11456 86.7083 4.67564C86.2708 5.1536 85.6666 5.50687 84.8958 5.73546L85.5416 6.96153C86.1875 6.77451 86.7708 6.48357 87.3125 6.10952C87.8125 5.75624 88.1458 5.42375 88.3125 5.09126C88.5 5.42375 88.8333 5.77702 89.3333 6.10952C89.8541 6.48357 90.4583 6.77451 91.1041 6.96153L91.75 5.73546ZM82.75 10.3488H84.4375V2.18194H82.75V10.3488ZM78.0833 2.26506V8.39541C78.0833 8.76947 78.1666 9.03962 78.3333 9.24743C78.5208 9.45524 78.7708 9.53836 79.1041 9.53836H82.1041V2.26506H80.4791V4.42627H79.7083V2.26506H78.0833ZM80.4791 8.14604H79.7083V5.83937H80.4791V8.14604ZM75.8125 5.75624V8.60322C75.2708 8.16682 74.875 7.66808 74.6041 7.12778C74.2291 6.37967 74.0625 5.42375 74.0625 4.26002V2.18194H72.375V4.26002C72.375 5.44453 72.1875 6.44201 71.7916 7.19012C71.5208 7.75121 71.1041 8.22917 70.5416 8.66556L71.4166 9.74617C71.7916 9.47602 72.1666 9.12274 72.5416 8.64478C72.9166 8.16682 73.125 7.79277 73.2083 7.48105C73.2916 7.77199 73.5208 8.16682 73.875 8.64478C74.25 9.12274 74.625 9.4968 75 9.74617L75.7916 8.79025V10.328H77.4791V2.18194H75.7916V4.36393H74.8333V5.77702H75.8125V5.75624ZM65.625 8.35385C66.125 8.35385 66.5208 8.41619 66.7708 8.5201C67 8.624 67.1041 8.74869 67.1041 8.91493C67.1041 9.0604 67 9.18509 66.7708 9.28899C66.5208 9.39289 66.1458 9.43446 65.625 9.43446C65.1041 9.43446 64.7291 9.39289 64.4583 9.28899C64.2291 9.20587 64.125 9.08118 64.125 8.91493C64.125 8.74869 64.2291 8.60322 64.4583 8.5201C64.7291 8.39541 65.125 8.35385 65.625 8.35385ZM65.625 7.2109C64.6041 7.2109 63.7916 7.37715 63.25 7.73043C62.75 8.04214 62.5 8.43697 62.5 8.91493C62.5 9.37211 62.75 9.74617 63.25 10.0579C63.8125 10.4112 64.6041 10.5774 65.625 10.5774C66.6458 10.5774 67.4375 10.4112 68 10.0579C68.5 9.76695 68.75 9.37211 68.75 8.91493C68.75 8.41619 68.5 8.02136 68 7.73043C67.4583 7.37715 66.6666 7.2109 65.625 7.2109ZM65 5.2575C65.1458 5.21594 65.2916 5.1536 65.3958 5.07048C65.5 5.00813 65.5833 4.94579 65.625 4.86267C65.6666 4.92501 65.7291 5.00813 65.8333 5.07048C65.9166 5.13282 66.0416 5.19516 66.1875 5.2575H65ZM66.4791 5.31985C66.75 5.40297 67.0625 5.46531 67.4166 5.50687C67.7916 5.54843 68.2083 5.56922 68.6666 5.56922L69.0625 4.50939C68.3125 4.53017 67.7291 4.44705 67.2708 4.2808C66.875 4.13534 66.6458 3.96909 66.6041 3.76128H68.7291V2.55599H66.5V2.11959H64.8333V2.55599H62.6041V3.76128H64.7083C64.6458 3.96909 64.4375 4.13534 64.0416 4.2808C63.5833 4.44705 63 4.53017 62.25 4.50939L62.6458 5.56922C63.0833 5.56922 63.5 5.54843 63.875 5.50687C64.2291 5.46531 64.5416 5.40297 64.8125 5.31985V5.96405H62.3958V7.02388H68.9166V5.96405H66.5V5.31985H66.4791ZM55.4375 8.43697V9.97476H61.9583V8.43697H59.5416V6.91997H57.875V8.43697H55.4375ZM57.375 2.18194H55.6875V5.44453C55.6875 5.81859 55.7708 6.08874 55.9375 6.29655C56.125 6.50435 56.375 6.58748 56.7083 6.58748H61.7083V5.07048H57.375V2.18194ZM55.0208 7.70964V6.29655H48.5V7.70964H50.9166V10.3488H52.5833V7.70964H55.0208ZM52.7083 3.44957H54.8333V2.18194H48.7083V3.44957H50.8125C50.7708 3.80284 50.5208 4.11456 50.0208 4.36393C49.5625 4.59252 49 4.7172 48.3541 4.75876L48.75 5.90171C49.4375 5.90171 50.0833 5.79781 50.6666 5.59C51.25 5.40297 51.6041 5.17438 51.75 4.92501C51.9166 5.19516 52.2916 5.40297 52.8541 5.59C53.4375 5.79781 54.0833 5.88093 54.7708 5.90171L55.1666 4.75876C54.5 4.73798 53.9375 4.59252 53.4791 4.36393C53 4.11456 52.7291 3.80284 52.7083 3.44957ZM43.625 7.37715H41.9375V9.18509C41.9375 9.55914 42.0208 9.82929 42.2083 10.0371C42.375 10.2449 42.6458 10.328 42.9791 10.328H47.9375V8.93571H43.625V7.37715ZM46.1875 8.00058H47.875V2.18194H46.1875V8.00058ZM43.9166 5.54844H43.1458V3.67816H43.9166V5.54844ZM45.5416 2.26506H41.5208V5.79781C41.5208 6.17186 41.6041 6.44201 41.7708 6.64982C41.9583 6.85763 42.2083 6.94075 42.5416 6.94075H45.5416V2.26506Z" fill="black"/>
</g>
<defs>
<clipPath id="clip0_930_3909">
<rect width="221" height="33" fill="white"/>
</clipPath>
</defs>
</svg>
