<svg width="323" height="48" viewBox="0 0 323 48" fill="none" xmlns="http://www.w3.org/2000/svg">
<g clip-path="url(#clip0_936_781)">
<path d="M0 46.8816H46.891C23.1106 -6.13602 22.7452 -1.96474 0 46.8816ZM23.4455 0C24.9679 0 26.2163 1.20907 26.2163 2.7204C26.2163 4.20151 24.9679 5.44081 23.4455 5.44081C21.9231 5.44081 20.6747 4.23174 20.6747 2.7204C20.6747 1.20907 21.9231 0 23.4455 0Z" fill="#AAAAAA"/>
<path d="M6.12019 46.8816H29.5657C17.6603 22.2771 17.4776 24.2116 6.12019 46.8816ZM17.8429 23.3652C19 23.3652 19.9135 24.272 19.9135 25.3904C19.9135 26.5088 18.9696 27.4156 17.8429 27.4156C16.6859 27.4156 15.7724 26.5088 15.7724 25.3904C15.7724 24.272 16.6859 23.3652 17.8429 23.3652Z" fill="#888888"/>
<path d="M32.5801 28.6248C33.4936 28.6248 34.2548 29.3502 34.2548 30.257C34.2548 31.1638 33.4936 31.8892 32.5801 31.8892C31.6667 31.8892 30.9054 31.1638 30.9054 30.257C30.9054 29.3502 31.6362 28.6248 32.5801 28.6248ZM23.9327 46.8817H41.2276C32.4583 28.7457 32.3061 30.1663 23.9327 46.8817Z" fill="#999999"/>
<path d="M299.95 23.1234V20.2519C299.95 20.0101 300.042 19.7078 300.255 19.3753C300.468 19.0126 300.833 18.8313 301.351 18.8313H306.527C307.319 18.8313 308.019 18.7708 308.628 18.6197C309.237 18.4685 309.724 18.3174 310.09 18.136C310.486 17.9547 310.76 17.7733 310.973 17.6222C311.155 17.4711 311.277 17.3804 311.277 17.3804V20.7355C311.277 21.0076 311.216 21.2192 311.125 21.4307C311.034 21.6423 310.881 21.8237 310.729 21.9748C310.455 22.2166 309.998 22.4585 309.389 22.7305C308.78 23.0025 307.867 23.1234 306.679 23.1234M111.29 23.1234V20.2519C111.29 20.0101 111.381 19.7078 111.595 19.3753C111.808 19.0126 112.173 18.8313 112.691 18.8313H117.867C118.659 18.8313 119.359 18.7708 119.968 18.6197C120.577 18.4685 121.064 18.3174 121.429 18.136C121.825 17.9547 122.099 17.7733 122.312 17.6222C122.495 17.4711 122.617 17.3804 122.617 17.3804V20.7355C122.617 21.0076 122.556 21.2192 122.465 21.4307C122.373 21.6423 122.221 21.8237 122.069 21.9748C121.795 22.2166 121.338 22.4585 120.729 22.7305C120.12 23.0025 119.207 23.1234 118.019 23.1234H111.29ZM75.0561 33.0378C74.3253 32.7658 73.1683 32.1612 71.5545 31.1637C69.9711 30.1965 69.1795 28.5642 69.1795 26.2368V25.6625H73.9295V21.7028H59.8926V25.6625H64.6731V26.2368C64.6731 28.3224 63.9728 29.9244 62.5417 31.0428C61.1106 32.131 59.6186 32.9773 58.0657 33.5819L60.6234 36.937C61.9327 36.4534 63.1811 35.7884 64.399 34.9119C65.617 34.0353 66.4391 33.1587 66.9263 32.3124C67.5048 33.2494 68.3878 34.0957 69.5753 34.7909C70.7628 35.4862 71.8285 36.0302 72.8029 36.3627L75.0561 33.0378ZM248.37 45.0076V40.8363H237.622V34.9119H245.63V30.9522H229.888V21.3098H225.564V34.9421H233.237V40.8665H148.255V32.2821H143.87V40.8665H141.708V32.2821H137.324V40.8665H131.995V44.8262L248.37 45.0076ZM273.125 36.4534V32.5239H262.407V30.6499H270.354V26.7204H254.764V24.8464H270.08V20.8564H250.288V30.6197H257.84V32.4937H247.244V36.4232H273.125V36.4534ZM270.659 42.5894C270.659 41.0176 269.776 39.7179 268.01 38.7204C266.244 37.7229 263.625 37.2393 260.154 37.2393C256.713 37.2393 254.095 37.7229 252.329 38.7204C250.562 39.7179 249.679 41.0176 249.679 42.5894C249.679 44.1612 250.562 45.4307 252.329 46.4585C254.095 47.4862 256.683 48 260.154 48C263.625 48 266.244 47.4862 268.01 46.4585C269.776 45.4307 270.659 44.131 270.659 42.5894ZM265.604 42.6197C265.604 43.194 265.147 43.6171 264.204 43.9194C263.26 44.2217 261.92 44.3426 260.184 44.3426C258.418 44.3426 257.079 44.1915 256.165 43.8892C255.252 43.5869 254.795 43.1335 254.795 42.5592C254.795 41.9547 255.252 41.5315 256.165 41.2292C257.079 40.927 258.418 40.8061 260.184 40.8061C261.92 40.8061 263.26 40.9572 264.204 41.2595C265.147 41.5617 265.604 42.0151 265.604 42.6197ZM296.479 34.4585C294.926 34.0353 293.008 33.1587 290.755 31.7683C288.502 30.3779 287.375 28.6247 287.375 26.4786V26.1763H295.109V22.1864H274.769V26.1461H282.503V26.4484C282.503 28.4433 281.498 30.136 279.489 31.5869C277.479 33.0076 275.439 33.9748 273.399 34.4282L276.018 37.6323C277.388 37.33 279.002 36.6348 280.859 35.5466C282.747 34.4282 284.087 33.2192 284.909 31.8892C285.944 33.4307 287.405 34.7305 289.324 35.7582C291.242 36.8161 292.734 37.4207 293.83 37.6323L296.479 34.4585ZM297.849 45.2192V41.2595H287.131V35.6071H282.716V41.2595H271.998V45.2192H297.849ZM313.804 24.1512H297.362V27.5365H313.804V24.1512ZM323 30.6499V26.6902H319.681V20.2519H315.357V35.9396H319.681V30.6801H323V30.6499ZM313.195 32.1915C313.195 30.9824 312.526 29.9849 311.155 29.2292C309.785 28.4736 307.958 28.0806 305.644 28.0806C303.421 28.0806 301.595 28.4736 300.133 29.2595C298.671 30.0454 297.941 31.0428 297.941 32.2519C297.941 33.4307 298.671 34.4585 300.133 35.3048C301.595 36.1512 303.391 36.5743 305.583 36.5743C307.928 36.5743 309.785 36.1512 311.186 35.335C312.526 34.4585 313.195 33.4307 313.195 32.1915ZM319.681 47.335V37.0277H315.357V38.7809H305.279V37.0277H300.955V47.335H319.681ZM308.628 32.1915C308.628 32.6146 308.354 32.8867 307.837 33.0983C307.288 33.2796 306.558 33.3703 305.614 33.3703C304.67 33.3703 303.909 33.2796 303.361 33.0983C302.812 32.9169 302.538 32.6449 302.538 32.2217C302.538 31.7985 302.812 31.5265 303.361 31.3451C303.909 31.194 304.67 31.1033 305.614 31.1033C306.558 31.1033 307.319 31.194 307.837 31.3451C308.354 31.5265 308.628 31.7985 308.628 32.1915ZM315.357 43.7078H305.279V42.2267H315.357V43.7078ZM168.625 34.8212V22.5491H165.945V26.3275H162.901V22.5491H160.221V34.8212H168.625ZM173.71 21.2192H171V38.267H173.71V21.2192ZM165.945 32.3426H162.901V28.8363H165.945V32.3426ZM189.817 31.3451V21.2192H187.107V24.9068H184.397V27.2947H187.107V31.3451H189.817ZM185.22 28.7154C184.763 28.534 184.032 28.1411 183.058 27.5063C182.053 26.8716 181.566 26.0252 181.566 24.9673V24.6046H184.519V22.126H175.78V24.6046H178.764V24.9673C178.764 25.9345 178.308 26.7809 177.425 27.4761C176.542 28.1713 175.598 28.7154 174.654 29.1083L176.237 31.3149C177.059 31.0428 177.851 30.6197 178.612 30.0151C179.373 29.4106 179.921 28.8665 180.195 28.3224C180.561 28.8967 181.109 29.4106 181.84 29.8338C182.571 30.2569 183.21 30.5894 183.819 30.801L185.22 28.7154ZM190.061 34.8514C190.061 33.8539 189.482 33.0076 188.325 32.3426C187.168 31.6776 185.615 31.3149 183.606 31.3149C181.596 31.3149 180.043 31.6474 178.886 32.3426C177.76 33.0076 177.181 33.8539 177.181 34.8514C177.181 35.8489 177.76 36.6952 178.886 37.3602C180.013 38.0554 181.596 38.3879 183.606 38.3879C185.585 38.3879 187.168 38.0554 188.325 37.3602C189.482 36.6952 190.061 35.8489 190.061 34.8514ZM187.107 34.8816C187.107 35.2141 186.772 35.5466 186.133 35.7884C185.494 36.0605 184.671 36.1814 183.636 36.1814C182.631 36.1814 181.779 36.0302 181.139 35.7582C180.5 35.4559 180.165 35.1537 180.165 34.8212C180.165 34.4585 180.5 34.1562 181.139 33.9446C181.779 33.733 182.631 33.5819 183.636 33.5819C184.641 33.5819 185.494 33.7028 186.133 33.9748C186.772 34.2166 187.107 34.5189 187.107 34.8816ZM205.955 31.2544V28.7758H203.337C203.58 27.7784 203.763 26.66 203.976 25.4207C204.159 24.1814 204.25 23.0328 204.22 21.9748H191.462V24.4534H201.236C201.175 25.1184 201.083 25.8741 200.962 26.6902C200.809 27.5063 200.687 28.2318 200.596 28.7758H189.848V31.2544H193.715V38.267H196.425V31.2544H199.47V38.267H202.179V31.2544H205.955ZM220.631 21.2192H217.921V31.3753H220.631V21.2192ZM216.247 28.9874C215.364 28.6852 214.542 28.262 213.78 27.6574C213.019 27.0831 212.623 26.1763 212.623 24.9975V24.5743H215.577V22.0957H206.838V24.5743H209.822V24.9975C209.822 26.3275 209.335 27.2947 208.391 27.9295C207.447 28.5642 206.564 29.0176 205.742 29.3199L207.417 31.4358C207.995 31.3149 208.665 30.9824 209.426 30.4383C210.187 29.8942 210.796 29.2897 211.223 28.5945C211.74 29.2897 212.349 29.8338 212.958 30.2267C213.598 30.6197 214.176 30.8917 214.694 31.0731L216.247 28.9874ZM220.571 38.267V32.0403H208.3V34.5189H217.861V38.267H220.571ZM82.4856 40.0806V20.2519H78.1619V26.3275H73.8077V30.4988H78.1619V40.1108H82.4856V40.0806ZM83.0641 47.0025V43.0428H67.5048V37.8136H63.1811V47.0328H83.0641V47.0025ZM108.397 34.2771V30.3174H104.439C104.896 28.9572 105.231 27.4459 105.474 25.7834C105.718 24.1209 105.87 22.5189 105.931 21.0378H85.0737V24.9975H101.09C100.998 25.7229 100.877 26.5995 100.724 27.597C100.572 28.6247 100.389 29.5315 100.176 30.3174H82.516V34.2771H92.5641V37.8136H85.2564V41.7733H100.968V47.6373H105.292V37.8136H97.1314V34.2771H108.397ZM124.322 24.393H107.88V27.9597H124.322V24.393ZM133.518 31.5265V27.3552H130.199V20.2519H125.875V37.7532H130.199V31.5265H133.518ZM123.591 32.9773C123.591 31.6171 122.891 30.529 121.46 29.7431C120.029 28.9572 118.263 28.534 116.162 28.534C114.183 28.534 112.417 28.927 110.894 29.7431C109.372 30.5592 108.58 31.6474 108.58 33.0076C108.58 34.3073 109.341 35.4257 110.864 36.3325C112.386 37.2393 114.122 37.6625 116.071 37.6625C118.263 37.6625 120.059 37.2091 121.46 36.3325C122.891 35.4559 123.591 34.3375 123.591 32.9773ZM130.229 47.6373V38.6902H110.712V42.4988H125.723V47.6071H130.229V47.6373ZM119.054 32.9773C119.054 33.4307 118.75 33.7632 118.171 34.0051C117.593 34.2166 116.893 34.3375 116.162 34.3375C115.431 34.3375 114.761 34.2166 114.152 34.0051C113.513 33.7935 113.208 33.461 113.208 33.0076C113.208 32.5844 113.543 32.2519 114.183 32.0403C114.822 31.8287 115.492 31.7078 116.192 31.7078C116.923 31.7078 117.593 31.7985 118.202 32.0101C118.75 32.2217 119.054 32.5239 119.054 32.9773ZM155.228 22.9421H134.492V26.9018H150.569C150.478 28.927 150.325 30.8313 150.082 32.6146C149.838 34.398 149.564 36.1511 149.229 37.8438H153.522C154.101 35.5466 154.527 33.0983 154.771 30.529C154.984 27.9899 155.136 25.4509 155.228 22.9421Z" fill="#555555"/>
<path d="M149.503 11.5164C150.204 11.5164 150.782 11.6373 151.178 11.8489C151.543 12.0604 151.726 12.3023 151.726 12.6045C151.726 12.9068 151.543 13.1184 151.178 13.33C150.782 13.5415 150.234 13.6625 149.503 13.6625C148.803 13.6625 148.224 13.5415 147.859 13.33C147.524 13.1486 147.341 12.9068 147.341 12.6045C147.341 12.3023 147.524 12.0302 147.859 11.8489C148.224 11.607 148.772 11.5164 149.503 11.5164ZM149.534 9.79344C148.103 9.79344 146.976 10.0957 146.154 10.67C145.393 11.1839 145.027 11.8489 145.027 12.6045C145.027 13.3602 145.393 13.9949 146.154 14.539C147.006 15.1133 148.133 15.4156 149.534 15.4156C150.965 15.4156 152.091 15.1133 152.913 14.539C153.675 14.0252 154.04 13.3602 154.04 12.6045C154.04 11.8489 153.675 11.1839 152.913 10.67C152.061 10.0655 150.934 9.79344 149.534 9.79344ZM149.503 3.17379V9.37027H151.269V7.28462H152.091V9.37027H153.918V3.17379H152.091V5.25943H151.269V3.17379H149.503ZM148.833 3.2947H144.388V7.55666C144.388 8.10074 144.51 8.49369 144.753 8.79596C145.027 9.09823 145.393 9.21913 145.88 9.21913H148.803V3.2947H148.833ZM146.946 7.19394H146.184V5.31989H146.946V7.19394ZM137.476 10.7305H135.01V13.3602C135.01 13.9043 135.131 14.2972 135.405 14.5995C135.649 14.9018 136.045 15.0227 136.532 15.0227H143.779V12.9975H137.476V10.7305ZM140.46 7.40553C140.49 7.2544 140.521 7.10326 140.551 6.9219C140.582 6.77077 140.582 6.61964 140.582 6.4685V6.31737H141.191V7.40553H140.46ZM141.191 4.26195H140.216V4.80603C139.973 4.26195 139.607 3.80855 139.12 3.50629C138.603 3.17379 137.994 2.99243 137.293 2.99243C136.258 2.99243 135.466 3.35515 134.857 4.08059C134.309 4.74558 134.035 5.53147 134.035 6.4685C134.035 7.40553 134.309 8.19142 134.857 8.85641C135.466 9.58185 136.258 9.94457 137.293 9.94457C137.994 9.94457 138.603 9.76321 139.12 9.40049C139.607 9.068 139.942 8.64482 140.186 8.10074V9.43072H141.16V11.6675H143.627V3.20402H141.16V4.26195H141.191ZM137.324 4.74558C137.628 4.74558 137.872 4.92694 138.054 5.25943C138.207 5.5617 138.298 5.98487 138.298 6.4685C138.298 6.95213 138.207 7.34508 138.054 7.67757C137.872 8.01006 137.628 8.19142 137.324 8.19142C137.019 8.19142 136.776 8.01006 136.623 7.67757C136.471 7.34508 136.38 6.95213 136.38 6.4685C136.38 5.98487 136.471 5.5617 136.623 5.25943C136.776 4.92694 137.019 4.74558 137.324 4.74558ZM133.853 12.272H124.322V14.5088H133.853V12.272ZM134.096 8.34256C132.97 8.01006 132.087 7.49621 131.417 6.801C130.686 5.98487 130.29 4.92694 130.29 3.65742V3.17379H127.854V3.65742C127.854 4.92694 127.489 5.98487 126.728 6.801C126.088 7.49621 125.205 8.01006 124.079 8.34256L125.022 10.1259C125.966 9.85389 126.819 9.43072 127.611 8.88664C128.341 8.37278 128.829 7.88916 129.072 7.40553C129.346 7.88916 129.833 8.40301 130.564 8.88664C131.325 9.43072 132.208 9.85389 133.152 10.1259L134.096 8.34256ZM120.942 15.0529H123.409V3.17379H120.942V15.0529ZM114.122 3.2947V12.2116C114.122 12.7557 114.244 13.1486 114.487 13.4509C114.761 13.7531 115.127 13.874 115.614 13.874H119.998V3.2947H117.623V6.43828H116.497V3.2947H114.122ZM117.623 11.8489H116.497V8.49369H117.623V11.8489ZM110.803 8.37278V12.5138C110.011 11.8791 109.433 11.1536 109.037 10.3677C108.489 9.27958 108.245 7.88916 108.245 6.19646V3.17379H105.779V6.19646C105.779 7.91938 105.505 9.37026 104.926 10.4584C104.53 11.2745 103.921 11.9698 103.099 12.6045L104.378 14.1763C104.926 13.7834 105.474 13.2695 106.022 12.5743C106.571 11.8791 106.875 11.335 106.997 10.8816C107.119 11.3048 107.454 11.8791 107.971 12.5743C108.519 13.2695 109.067 13.8136 109.615 14.1763L110.772 12.7859V15.0227H113.239V3.17379H110.772V6.3476H109.372V8.40301H110.803V8.37278ZM95.9135 12.1511C96.6442 12.1511 97.2228 12.2418 97.5881 12.3929C97.9231 12.5441 98.0753 12.7254 98.0753 12.9672C98.0753 13.1788 97.9231 13.3602 97.5881 13.5113C97.2228 13.6625 96.6747 13.7229 95.9135 13.7229C95.1522 13.7229 94.6042 13.6625 94.2083 13.5113C93.8734 13.3904 93.7212 13.2091 93.7212 12.9672C93.7212 12.7254 93.8734 12.5138 94.2083 12.3929C94.6042 12.2116 95.1827 12.1511 95.9135 12.1511ZM95.9135 10.4887C94.4215 10.4887 93.234 10.7305 92.4423 11.2443C91.7115 11.6977 91.3462 12.272 91.3462 12.9672C91.3462 13.6322 91.7115 14.1763 92.4423 14.6297C93.2644 15.1436 94.4215 15.3854 95.9135 15.3854C97.4055 15.3854 98.5625 15.1436 99.3846 14.6297C100.115 14.2065 100.481 13.6322 100.481 12.9672C100.481 12.2418 100.115 11.6675 99.3846 11.2443C98.5929 10.7305 97.4359 10.4887 95.9135 10.4887ZM95 7.64734C95.2131 7.58689 95.4263 7.49621 95.5785 7.3753C95.7308 7.28462 95.8526 7.19394 95.9135 7.07304C95.9744 7.16372 96.0657 7.28462 96.2179 7.3753C96.3397 7.46598 96.5224 7.55666 96.7356 7.64734H95ZM97.1619 7.73802C97.5577 7.85893 98.0144 7.94961 98.5321 8.01006C99.0801 8.07052 99.6891 8.10074 100.359 8.10074L100.938 6.55918C99.8413 6.58941 98.9888 6.4685 98.3189 6.22669C97.7404 6.0151 97.4055 5.77329 97.3446 5.47102H100.45V3.71787H97.1923V3.08311H94.7564V3.71787H91.4984V5.47102H94.5737C94.4824 5.77329 94.1779 6.0151 93.5994 6.22669C92.9295 6.4685 92.0769 6.58941 90.9808 6.55918L91.5593 8.10074C92.1987 8.10074 92.8077 8.07052 93.3558 8.01006C93.8734 7.94961 94.3301 7.85893 94.726 7.73802V8.67505H91.1939V10.2166H100.724V8.67505H97.1923V7.73802H97.1619ZM81.024 12.272V14.5088H90.5545V12.272H87.0224V10.0655H84.5865V12.272H81.024ZM83.8558 3.17379H81.3894V7.91938C81.3894 8.46346 81.5112 8.85641 81.7548 9.15868C82.0288 9.46095 82.3942 9.58185 82.8814 9.58185H90.1891V7.3753H83.8558V3.17379ZM80.4151 11.2141V9.15868H70.8846V11.2141H74.4167V15.0529H76.8526V11.2141H80.4151ZM77.0353 5.01762H80.141V3.17379H71.1891V5.01762H74.2644C74.2035 5.53147 73.8381 5.98487 73.1074 6.3476C72.4375 6.68009 71.6154 6.86145 70.6715 6.9219L71.25 8.58437C72.2548 8.58437 73.1987 8.43324 74.0513 8.13097C74.9038 7.85893 75.4215 7.52644 75.6346 7.16372C75.8782 7.55666 76.4263 7.85893 77.2484 8.13097C78.101 8.43324 79.0449 8.55414 80.0497 8.58437L80.6282 6.9219C79.6538 6.89168 78.8317 6.68009 78.1619 6.3476C77.4615 5.98487 77.0657 5.53147 77.0353 5.01762ZM63.7596 10.7305H61.2933V13.3602C61.2933 13.9043 61.4151 14.2972 61.6891 14.5995C61.9327 14.9018 62.3285 15.0227 62.8157 15.0227H70.0625V12.9975H63.7596V10.7305ZM67.5048 11.6373H69.9712V3.17379H67.5048V11.6373ZM64.1859 8.07052H63.0593V5.35011H64.1859V8.07052ZM66.5609 3.2947H60.6843V8.43324C60.6843 8.97732 60.8061 9.37027 61.0497 9.67253C61.3237 9.9748 61.6891 10.0957 62.1763 10.0957H66.5609V3.2947Z" fill="#555555"/>
</g>
<defs>
<clipPath id="clip0_936_781">
<rect width="323" height="48" fill="white"/>
</clipPath>
</defs>
</svg>
