<svg width="122" height="52" viewBox="0 0 122 52" fill="none" xmlns="http://www.w3.org/2000/svg">
<g clip-path="url(#clip0_820_140)">
<path d="M7.04084 43.3606H6.66897C6.88326 43.6866 6.9954 44.068 6.99126 44.4569C6.98207 45.0033 6.76001 45.525 6.37147 45.9132C6.17791 46.1023 5.95105 46.2548 5.70209 46.3631C5.44098 46.4735 5.15962 46.5292 4.8757 46.5268C4.5919 46.5281 4.31077 46.4724 4.04931 46.3631C3.80035 46.2548 3.5735 46.1023 3.37993 45.9132C3.18462 45.7282 3.02989 45.5054 2.92542 45.2587C2.8139 45.0002 2.75763 44.7216 2.76014 44.4405C2.75803 44.2439 2.78589 44.0481 2.84278 43.8597C2.90227 43.6793 2.98269 43.5063 3.08243 43.3443H2.71882V41.9044H4.22285V40.9226H5.70209V41.9044H7.04084V43.3606ZM4.89223 45.0705C4.97194 45.0705 5.05075 45.0538 5.12341 45.0213C5.19608 44.9889 5.26094 44.9415 5.31369 44.8823C5.37217 44.8278 5.41854 44.7618 5.44984 44.6886C5.48114 44.6153 5.49669 44.5364 5.49549 44.4569C5.49748 44.3749 5.48236 44.2933 5.45108 44.2173C5.4198 44.1412 5.37303 44.0724 5.31369 44.0151C5.25956 43.9582 5.19424 43.9129 5.12176 43.882C5.04928 43.851 4.97117 43.8351 4.89223 43.8351C4.81014 43.8351 4.72886 43.8513 4.65312 43.8826C4.57738 43.914 4.50868 43.9599 4.45102 44.0177C4.39336 44.0756 4.34788 44.1442 4.31722 44.2196C4.28656 44.295 4.27134 44.3756 4.27244 44.4569C4.27662 44.6183 4.34326 44.772 4.4586 44.8862C4.57394 45.0004 4.72917 45.0664 4.89223 45.0705ZM9.4539 50.2083C9.45559 50.3035 9.4382 50.398 9.40274 50.4865C9.36728 50.575 9.31445 50.6556 9.24731 50.7237C9.10513 50.8592 8.91576 50.9354 8.71842 50.9365H7.99119V48.8093C7.99806 48.7605 7.99338 48.7107 7.97753 48.6639C7.96169 48.6171 7.9351 48.5747 7.89987 48.5398C7.86463 48.5049 7.8217 48.4786 7.77446 48.4629C7.72721 48.4472 7.67694 48.4426 7.62758 48.4494H5.77647V47.0013H9.46217L9.4539 50.2083ZM10.7348 44.9314H9.6605V46.5677H8.18953V41.9044H9.65224V43.5406H10.7348V44.9314Z" fill="#4C4B4D"/>
<path d="M11.5612 46.5676V41.4953H13.057V42.5425H13.9991V41.4953H14.7428C14.8408 41.4945 14.9379 41.5129 15.0287 41.5494C15.1194 41.5859 15.202 41.6398 15.2717 41.708C15.3432 41.7754 15.3999 41.8567 15.4383 41.9468C15.4767 42.0369 15.4959 42.1338 15.4948 42.2316V46.5676H11.5612ZM13.9991 44.0478H13.0404V45.1032H13.9825L13.9991 44.0478ZM18.0649 46.5676H16.6022V41.9043H18.0649V46.5676Z" fill="#4C4B4D"/>
<path d="M24.1554 43.4915V45.0051H22.3456V46.7886H20.8581V45.0051H19.0318V43.4915H20.8581V41.6998H22.3456V43.4915H24.1554Z" fill="#4C4B4D"/>
<path d="M30.155 46.3713V47.8194H25.0975V46.3713H25.6677V44.9314H27.1304V46.355H27.5849V44.9314H28.6675V43.7288C28.6743 43.6788 28.6694 43.628 28.6531 43.5803C28.6368 43.5325 28.6096 43.4891 28.5736 43.4535C28.5376 43.4179 28.4938 43.391 28.4456 43.3748C28.3974 43.3587 28.346 43.3539 28.2956 43.3606H25.1553V41.9125H30.1137V44.8741C30.1159 44.9697 30.0987 45.0647 30.063 45.1535C30.0273 45.2423 29.974 45.3231 29.9061 45.391C29.8383 45.459 29.7573 45.5127 29.668 45.549C29.5787 45.5853 29.483 45.6034 29.3864 45.6023H29.0394V46.3713H30.155Z" fill="#4C4B4D"/>
<path d="M31.6838 48.3184V47.8275H30.9566V46.3713H36.0141V47.8275H35.353V48.3184H35.9067V51.28C35.9092 51.4721 35.8349 51.6573 35.7001 51.7954C35.6325 51.8642 35.5515 51.9185 35.4619 51.955C35.3724 51.9916 35.2763 52.0097 35.1794 52.0082H34.4522V50.1347C34.459 50.0847 34.4541 50.0339 34.4378 49.9862C34.4216 49.9384 34.3944 49.895 34.3584 49.8594C34.3224 49.8238 34.2786 49.7968 34.2303 49.7807C34.1821 49.7646 34.1308 49.7597 34.0803 49.7665H30.8905V48.3184H31.6838ZM33.4688 45.5368C33.1611 45.5364 32.8565 45.4754 32.5727 45.3574C32.289 45.2395 32.0318 45.0668 31.816 44.8496C31.602 44.6383 31.4309 44.3883 31.3119 44.1133C31.1891 43.8261 31.1272 43.517 31.1301 43.2051C31.1264 42.8959 31.1884 42.5893 31.3119 42.3052C31.4309 42.0301 31.602 41.7802 31.816 41.5689C32.0279 41.3589 32.2773 41.1897 32.5515 41.0698C33.139 40.8298 33.7986 40.8298 34.3861 41.0698C34.6617 41.1917 34.9135 41.3606 35.1299 41.5689C35.3439 41.7802 35.515 42.0301 35.634 42.3052C35.7575 42.5893 35.8195 42.8959 35.8158 43.2051C35.8187 43.517 35.7568 43.8261 35.634 44.1133C35.515 44.3883 35.3439 44.6383 35.1299 44.8496C34.9157 45.0606 34.6634 45.2298 34.3861 45.3486C34.0966 45.4728 33.7844 45.5369 33.4688 45.5368ZM33.4688 42.5179C33.2839 42.5179 33.1065 42.59 32.975 42.7187C32.8435 42.8473 32.7686 43.0221 32.7664 43.2051C32.7677 43.3892 32.8419 43.5654 32.973 43.696C33.1057 43.8235 33.2839 43.8941 33.4688 43.8924C33.5593 43.894 33.6491 43.8774 33.7329 43.8436C33.8167 43.8099 33.8927 43.7597 33.9564 43.696C34.0228 43.6325 34.0754 43.5561 34.1109 43.4717C34.1464 43.3873 34.1641 43.2966 34.163 43.2051C34.1608 43.0235 34.087 42.85 33.9573 42.7215C33.8276 42.5931 33.6522 42.52 33.4688 42.5179ZM33.1465 48.3184H33.8737V47.8194H33.13L33.1465 48.3184Z" fill="#4C4B4D"/>
<path d="M106.142 43.6306V30.8106H101.059V43.6306C101.059 44.965 101.595 46.2448 102.548 47.1884C103.501 48.132 104.794 48.6621 106.142 48.6621H118.207V43.6306H106.142Z" fill="#D62D71"/>
<path d="M122 3.56702H116.918V31.1215H122V3.56702Z" fill="#D62D71"/>
<path d="M105.365 16.1171V11.0856H90.341V16.1171H91.5723V21.8439H90.341V26.9327H105.365V21.8848H104.117V16.158L105.365 16.1171ZM99.0429 21.8439H96.6794V16.1171H99.0677L99.0429 21.8439Z" fill="#D62D71"/>
<path d="M110.794 18.2115H107.943V23.2429H110.794V31.1215H115.909V3.5343H110.794V18.2115Z" fill="#D62D71"/>
<path d="M78.1269 32.9704C76.4925 32.9704 74.8948 33.4502 73.5358 34.3492C72.1768 35.2482 71.1176 36.5259 70.4921 38.0208C69.8666 39.5157 69.703 41.1607 70.0218 42.7477C70.3407 44.3347 71.1277 45.7925 72.2835 46.9367C73.4392 48.0808 74.9117 48.86 76.5147 49.1757C78.1178 49.4914 79.7794 49.3293 81.2894 48.7101C82.7994 48.0909 84.0901 47.0423 84.9981 45.6969C85.9062 44.3515 86.3908 42.7697 86.3908 41.1516C86.3908 38.9818 85.5202 36.9009 83.9704 35.3666C82.4206 33.8323 80.3187 32.9704 78.1269 32.9704ZM78.1269 44.2114C77.5144 44.2098 76.916 44.0285 76.4075 43.6904C75.899 43.3523 75.5031 42.8726 75.2698 42.3119C75.0365 41.7511 74.9763 41.1345 75.0968 40.5399C75.2173 39.9453 75.5131 39.3995 75.9468 38.9712C76.3805 38.543 76.9327 38.2516 77.5337 38.1339C78.1346 38.0161 78.7572 38.0774 79.323 38.3098C79.8888 38.5423 80.3723 38.9355 80.7125 39.4398C81.0526 39.9442 81.2342 40.537 81.2342 41.1435C81.232 41.9579 80.9036 42.7382 80.3212 43.3133C79.7387 43.8885 78.9496 44.2114 78.1269 44.2114Z" fill="#D62D71"/>
<path d="M53.0212 43.6306V32.2505H47.9224V43.6306C47.9224 44.2913 48.0538 44.9456 48.3092 45.5561C48.5646 46.1665 48.939 46.7212 49.4109 47.1884C49.8829 47.6556 50.4431 48.0262 51.0598 48.2791C51.6764 48.5319 52.3373 48.6621 53.0047 48.6621H65.0782V43.6306H53.0212Z" fill="#D62D71"/>
<path d="M58.9547 5.70233V9.4248H54.0955V5.70233H49.0132V18.1706C49.0154 19.5043 49.5515 20.7828 50.5042 21.7259C51.4568 22.6691 52.7483 23.1999 54.0955 23.202H58.9547C60.3012 23.202 61.5926 22.673 62.5455 21.7312C63.4984 20.7894 64.0348 19.5117 64.037 18.1787V5.70233H58.9547ZM58.9547 18.1706H54.0955V14.4563H58.9547V18.1706Z" fill="#D62D71"/>
<path d="M80.6557 25.1082V22.2857H75.5734V25.1082H69.3259V30.1724H86.9032V25.1082H80.6557Z" fill="#D62D71"/>
<path d="M59.2687 29.4198V32.2423H54.1864V29.4198H47.9389V24.3556H65.5162V29.4198H59.2687Z" fill="#D62D71"/>
<path d="M78.1269 9.51478C76.6859 9.50992 75.2759 9.92851 74.0754 10.7175C72.8748 11.5066 71.9378 12.6306 71.383 13.9472C70.8281 15.2637 70.6804 16.7137 70.9585 18.1135C71.2366 19.5133 71.9281 20.7998 72.9453 21.8103C73.9625 22.8208 75.2597 23.5097 76.6726 23.7898C78.0856 24.0699 79.5507 23.9286 80.8825 23.3838C82.2143 22.839 83.3528 21.9152 84.1539 20.7294C84.955 19.5435 85.3826 18.149 85.3826 16.7225C85.3848 14.8144 84.6219 12.9836 83.2614 11.6321C81.9009 10.2807 80.0542 9.51912 78.1269 9.51478ZM78.1269 18.8578C77.7007 18.8561 77.2845 18.7295 76.9309 18.4939C76.5773 18.2583 76.3021 17.9243 76.1401 17.534C75.9782 17.1436 75.9366 16.7146 76.0208 16.3009C76.1049 15.8872 76.311 15.5075 76.613 15.2097C76.9149 14.9119 77.2993 14.7093 77.7174 14.6276C78.1356 14.5459 78.5689 14.5886 78.9625 14.7505C79.3561 14.9123 79.6925 15.186 79.9291 15.537C80.1658 15.888 80.2921 16.3005 80.2921 16.7225C80.2899 17.2895 80.0608 17.8326 79.655 18.2328C79.2492 18.6331 78.6997 18.8578 78.1269 18.8578Z" fill="#D62D71"/>
<path d="M80.6557 6.34864V2.96161H75.5734V6.34864H70.6068V11.4128H85.6306V6.34864H80.6557Z" fill="#D62D71"/>
<path d="M38.7329 19.1768C38.7329 22.9697 37.5968 26.6773 35.4684 29.8309C33.3399 32.9845 30.3146 35.4425 26.7751 36.8939C23.2356 38.3454 19.3408 38.7251 15.5833 37.9852C11.8258 37.2453 8.37426 35.4188 5.66523 32.7369C2.95621 30.055 1.11134 26.638 0.363922 22.9181C-0.383497 19.1981 0.000105616 15.3423 1.46622 11.8382C2.93233 8.33407 5.41511 5.33906 8.60059 3.23188C11.7861 1.1247 15.5312 0 19.3623 0C24.4997 0 29.4267 2.02041 33.0594 5.61677C36.6921 9.21312 38.7329 14.0908 38.7329 19.1768Z" fill="#E9E7E6"/>
<mask id="mask0_820_140" style="mask-type:luminance" maskUnits="userSpaceOnUse" x="-1" y="0" width="40" height="39">
<path d="M-0.00827804 19.1768C-0.00827804 22.9697 1.12779 26.6773 3.25625 29.8309C5.38472 32.9845 8.40999 35.4425 11.9495 36.8939C15.489 38.3454 19.3838 38.7251 23.1413 37.9852C26.8988 37.2453 30.3504 35.4188 33.0594 32.7369C35.7684 30.055 37.6133 26.638 38.3607 22.9181C39.1081 19.1981 38.7245 15.3423 37.2584 11.8382C35.7923 8.33407 33.3095 5.33906 30.124 3.23188C26.9386 1.1247 23.1934 1.7468e-06 19.3623 1.7468e-06C16.8182 -0.00107345 14.2989 0.494216 11.9482 1.45756C9.59758 2.42091 7.46175 3.83342 5.66281 5.61437C3.86387 7.39532 2.43709 9.50978 1.46401 11.8369C0.49093 14.164 -0.00936409 16.6582 -0.00827804 19.1768Z" fill="white"/>
</mask>
<g mask="url(#mask0_820_140)">
<g style="mix-blend-mode:multiply">
<mask id="mask1_820_140" style="mask-type:luminance" maskUnits="userSpaceOnUse" x="14" y="8" width="11" height="10">
<path d="M24.4281 8.15671H14.7428V17.7451H24.4281V8.15671Z" fill="white"/>
</mask>
<g mask="url(#mask1_820_140)">
<mask id="mask2_820_140" style="mask-type:luminance" maskUnits="userSpaceOnUse" x="14" y="8" width="11" height="10">
<path d="M19.5818 8.16466L14.7434 12.9547L19.5818 17.7446L24.4202 12.9546L19.5818 8.16466Z" fill="white"/>
</mask>
<g mask="url(#mask2_820_140)">
<path d="M18.4285 9.40027L15.9493 14.1781H23.1555L20.6763 9.40027C20.5678 9.18873 20.4023 9.01106 20.1981 8.88695C19.9939 8.76284 19.759 8.69714 19.5193 8.69714C19.2797 8.69714 19.0448 8.76284 18.8406 8.88695C18.6363 9.01106 18.4708 9.18873 18.3624 9.40027" fill="#A8BFBF"/>
</g>
</g>
</g>
<path d="M17.1807 21.214H12.3793V38.6891H17.1807V21.214Z" fill="#BB296A"/>
<path d="M21.982 21.214H17.1807V38.6891H21.982V21.214Z" fill="#DE357A"/>
<path d="M26.7916 21.214H21.9902V38.6891H26.7916V21.214Z" fill="#E64B9A"/>
<path d="M20.7424 9.40027L23.2216 14.1781H15.9824L18.4616 9.40027C18.57 9.18873 18.7355 9.01106 18.9397 8.88695C19.1439 8.76284 19.3789 8.69714 19.6185 8.69714C19.8581 8.69714 20.0931 8.76284 20.2973 8.88695C20.5015 9.01106 20.667 9.18873 20.7755 9.40027" fill="#DE357A"/>
<path d="M12.3793 21.214H16.8253L18.2054 14.1781H15.9824L12.3793 21.214Z" fill="#EFAF84"/>
<path d="M16.8253 21.214H26.7916L23.1885 14.1781H18.2054L16.8253 21.214Z" fill="#F5C7A3"/>
</g>
</g>
<defs>
<clipPath id="clip0_820_140">
<rect width="122" height="52" fill="white"/>
</clipPath>
</defs>
</svg>
