<svg width="296" height="44" viewBox="0 0 296 44" fill="none" xmlns="http://www.w3.org/2000/svg">
<g clip-path="url(#clip0_930_3903)">
<path d="M0 42.9748H42.9713C21.1787 -5.62468 20.8439 -1.80101 0 42.9748ZM21.4857 0C22.8808 0 24.0249 1.10831 24.0249 2.4937C24.0249 3.85139 22.8808 4.98741 21.4857 4.98741C20.0905 4.98741 18.9465 3.87909 18.9465 2.4937C18.9465 1.10831 20.0905 0 21.4857 0Z" fill="#ED1C24"/>
<path d="M5.60864 42.9748H27.0943C16.1841 20.4206 16.0166 22.1939 5.60864 42.9748ZM16.3515 21.4181C17.4118 21.4181 18.2489 22.2493 18.2489 23.2745C18.2489 24.2997 17.3839 25.1309 16.3515 25.1309C15.2911 25.1309 14.454 24.2997 14.454 23.2745C14.454 22.2493 15.2911 21.4181 16.3515 21.4181Z" fill="#00AEEF"/>
<path d="M29.8567 26.2393C30.6938 26.2393 31.3914 26.9042 31.3914 27.7355C31.3914 28.5667 30.6938 29.2317 29.8567 29.2317C29.0196 29.2317 28.322 28.5667 28.322 27.7355C28.322 26.9042 28.9917 26.2393 29.8567 26.2393ZM21.9321 42.9748H37.7813C29.7451 26.3501 29.6056 27.6524 21.9321 42.9748Z" fill="#FFDB00"/>
<path d="M274.877 21.1965V18.5642C274.877 18.3426 274.961 18.0655 275.156 17.7607C275.351 17.4282 275.686 17.262 276.161 17.262H280.904C281.63 17.262 282.271 17.2066 282.83 17.068C283.388 16.9295 283.834 16.7909 284.169 16.6247C284.532 16.4585 284.783 16.2922 284.978 16.1537C285.146 16.0151 285.257 15.932 285.257 15.932V19.0076C285.257 19.2569 285.201 19.4509 285.118 19.6449C285.034 19.8388 284.894 20.0051 284.755 20.1436C284.504 20.3653 284.085 20.5869 283.527 20.8363C282.969 21.0857 282.132 21.1965 281.044 21.1965M101.987 21.1965V18.5642C101.987 18.3426 102.071 18.0655 102.266 17.7607C102.462 17.4282 102.796 17.262 103.271 17.262H108.014C108.74 17.262 109.382 17.2066 109.94 17.068C110.498 16.9295 110.944 16.7909 111.279 16.6247C111.642 16.4585 111.893 16.2922 112.088 16.1537C112.256 16.0151 112.367 15.932 112.367 15.932V19.0076C112.367 19.2569 112.311 19.4509 112.228 19.6449C112.144 19.8388 112.005 20.0051 111.865 20.1436C111.614 20.3653 111.195 20.5869 110.637 20.8363C110.079 21.0857 109.242 21.1965 108.154 21.1965H101.987ZM68.7821 30.2847C68.1124 30.0353 67.052 29.4811 65.5732 28.5668C64.1222 27.6801 63.3967 26.1839 63.3967 24.0504V23.5239H67.7496V19.8942H54.8861V23.5239H59.267V24.0504C59.267 25.9622 58.6252 27.4307 57.3137 28.4559C56.0023 29.4534 54.635 30.2292 53.2119 30.7834L55.5558 33.859C56.7557 33.4156 57.8997 32.8061 59.0158 32.0025C60.132 31.199 60.8854 30.3955 61.3318 29.6197C61.862 30.4786 62.6712 31.2544 63.7594 31.8917C64.8477 32.529 65.8243 33.0277 66.7172 33.3325L68.7821 30.2847ZM227.609 41.2569V37.4333H217.759V32.0025H225.097V28.3728H210.671V19.534H206.709V32.0302H213.741V37.461H135.862V29.592H131.844V37.461H129.863V29.592H125.845V37.461H120.962V41.0907L227.609 41.2569ZM250.294 33.4156V29.8136H240.472V28.0957H247.755V24.4937H233.468V22.7758H247.504V19.1184H229.367V28.068H236.287V29.7859H226.576V33.3879H250.294V33.4156ZM248.034 39.0403C248.034 37.5995 247.225 36.4081 245.606 35.4937C243.988 34.5794 241.588 34.136 238.407 34.136C235.254 34.136 232.854 34.5794 231.236 35.4937C229.618 36.4081 228.808 37.5995 228.808 39.0403C228.808 40.4811 229.618 41.6448 231.236 42.5869C232.854 43.529 235.226 44 238.407 44C241.588 44 243.988 43.529 245.606 42.5869C247.225 41.6448 248.034 40.4534 248.034 39.0403ZM243.402 39.068C243.402 39.5945 242.983 39.9824 242.118 40.2595C241.253 40.5365 240.026 40.6474 238.435 40.6474C236.817 40.6474 235.589 40.5088 234.752 40.2318C233.915 39.9547 233.496 39.5391 233.496 39.0126C233.496 38.4585 233.915 38.0705 234.752 37.7935C235.589 37.5164 236.817 37.4056 238.435 37.4056C240.026 37.4056 241.253 37.5441 242.118 37.8212C242.983 38.0983 243.402 38.5139 243.402 39.068ZM271.696 31.5869C270.273 31.199 268.515 30.3955 266.45 29.1209C264.385 27.8464 263.353 26.2393 263.353 24.2721V23.995H270.44V20.3375H251.801V23.9673H258.888V24.2443C258.888 26.0731 257.968 27.6247 256.126 28.9547C254.284 30.2569 252.415 31.1436 250.545 31.5592L252.945 34.4962C254.201 34.2192 255.679 33.5819 257.382 32.5844C259.112 31.5592 260.339 30.4509 261.093 29.2318C262.041 30.6449 263.381 31.8363 265.139 32.7784C266.897 33.7481 268.264 34.3023 269.268 34.4962L271.696 31.5869ZM272.952 41.4509V37.8212H263.13V32.6398H259.084V37.8212H249.262V41.4509H272.952ZM287.573 22.1386H272.505V25.2418H287.573V22.1386ZM296 28.0957V24.466H292.959V18.5642H288.996V32.9446H292.959V28.1234H296V28.0957ZM287.015 29.5088C287.015 28.4005 286.401 27.4862 285.146 26.7935C283.89 26.1008 282.216 25.7406 280.095 25.7406C278.058 25.7406 276.384 26.1008 275.044 26.8212C273.705 27.5416 273.035 28.4559 273.035 29.5642C273.035 30.6449 273.705 31.5869 275.044 32.3627C276.384 33.1386 278.03 33.5265 280.039 33.5265C282.188 33.5265 283.89 33.1386 285.173 32.3904C286.401 31.5869 287.015 30.6449 287.015 29.5088ZM292.959 43.3904V33.9421H288.996V35.5491H279.76V33.9421H275.798V43.3904H292.959ZM282.83 29.5088C282.83 29.8967 282.578 30.1461 282.104 30.3401C281.602 30.5063 280.932 30.5894 280.067 30.5894C279.202 30.5894 278.505 30.5063 278.002 30.3401C277.5 30.1738 277.249 29.9244 277.249 29.5365C277.249 29.1486 277.5 28.8993 278.002 28.733C278.505 28.5945 279.202 28.5114 280.067 28.5114C280.932 28.5114 281.63 28.5945 282.104 28.733C282.578 28.8993 282.83 29.1486 282.83 29.5088ZM288.996 40.0655H279.76V38.7078H288.996V40.0655ZM154.529 31.9194V20.67H152.074V24.1335H149.284V20.67H146.828V31.9194H154.529ZM159.189 19.4509H156.706V35.0781H159.189V19.4509ZM152.074 29.6474H149.284V26.4333H152.074V29.6474ZM173.95 28.733V19.4509H171.467V22.8313H168.983V25.0202H171.467V28.733H173.95ZM169.737 26.3224C169.318 26.1562 168.649 25.796 167.756 25.2141C166.835 24.6323 166.388 23.8564 166.388 22.8867V22.5542H169.095V20.2821H161.087V22.5542H163.821V22.8867C163.821 23.7733 163.403 24.5491 162.594 25.1864C161.784 25.8237 160.919 26.3224 160.054 26.6826L161.505 28.7053C162.259 28.4559 162.984 28.068 163.682 27.5139C164.379 26.9597 164.882 26.461 165.133 25.9622C165.468 26.4887 165.97 26.9597 166.64 27.3476C167.309 27.7355 167.895 28.0403 168.453 28.2343L169.737 26.3224ZM174.173 31.9471C174.173 31.0328 173.643 30.2569 172.583 29.6474C171.523 29.0378 170.1 28.7053 168.258 28.7053C166.416 28.7053 164.993 29.0101 163.933 29.6474C162.9 30.2569 162.37 31.0328 162.37 31.9471C162.37 32.8615 162.9 33.6373 163.933 34.2469C164.965 34.8841 166.416 35.1889 168.258 35.1889C170.072 35.1889 171.523 34.8841 172.583 34.2469C173.643 33.6373 174.173 32.8615 174.173 31.9471ZM171.467 31.9748C171.467 32.2796 171.16 32.5844 170.574 32.8061C169.988 33.0554 169.235 33.1663 168.286 33.1663C167.365 33.1663 166.584 33.0277 165.998 32.7784C165.412 32.5013 165.105 32.2242 165.105 31.9194C165.105 31.5869 165.412 31.3098 165.998 31.1159C166.584 30.9219 167.365 30.7834 168.286 30.7834C169.207 30.7834 169.988 30.8942 170.574 31.1436C171.16 31.3653 171.467 31.6423 171.467 31.9748ZM188.739 28.6499V26.3778H186.339C186.563 25.4635 186.73 24.4383 186.925 23.3023C187.093 22.1663 187.176 21.1134 187.149 20.1436H175.457V22.4156H184.414C184.358 23.0252 184.274 23.7179 184.163 24.466C184.023 25.2141 183.912 25.8791 183.828 26.3778H173.978V28.6499H177.522V35.0781H180.005V28.6499H182.796V35.0781H185.279V28.6499H188.739ZM202.189 19.4509H199.705V28.7607H202.189V19.4509ZM198.17 26.5718C197.361 26.2947 196.608 25.9068 195.91 25.3527C195.213 24.8262 194.85 23.995 194.85 22.9144V22.5265H197.557V20.2544H189.548V22.5265H192.283V22.9144C192.283 24.1335 191.836 25.0202 190.971 25.602C190.106 26.1839 189.297 26.5995 188.544 26.8766L190.078 28.8161C190.609 28.7053 191.222 28.4005 191.92 27.9018C192.618 27.403 193.176 26.8489 193.566 26.2116C194.041 26.8489 194.599 27.3476 195.157 27.7078C195.743 28.068 196.273 28.3174 196.747 28.4836L198.17 26.5718ZM202.133 35.0781V29.3703H190.888V31.6423H199.649V35.0781H202.133ZM75.5905 36.7406V18.5642H71.6282V24.1335H67.638V27.9572H71.6282V36.7683H75.5905V36.7406ZM76.1207 43.0857V39.4559H61.862V34.6625H57.8997V43.1134H76.1207V43.0857ZM99.3363 31.4207V27.7909H95.7089C96.1274 26.5441 96.4344 25.1587 96.6576 23.6348C96.8808 22.1108 97.0204 20.6423 97.0762 19.2847H77.9623V22.9144H92.6395C92.5558 23.5794 92.4442 24.3829 92.3047 25.2972C92.1652 26.2393 91.9977 27.0705 91.8024 27.7909H75.6184V31.4207H84.8265V34.6625H78.1297V38.2922H92.5279V43.6675H96.4902V34.6625H89.0121V31.4207H99.3363ZM113.93 22.3602H98.862V25.6297H113.93V22.3602ZM122.357 28.8993V25.0756H119.315V18.5642H115.353V34.6071H119.315V28.8993H122.357ZM113.26 30.2292C113.26 28.9824 112.618 27.9849 111.307 27.2645C109.995 26.5441 108.377 26.1562 106.452 26.1562C104.638 26.1562 103.02 26.5164 101.624 27.2645C100.229 28.0126 99.5038 29.0101 99.5038 30.2569C99.5038 31.4484 100.201 32.4736 101.597 33.3048C102.992 34.136 104.582 34.5239 106.368 34.5239C108.377 34.5239 110.023 34.1083 111.307 33.3048C112.618 32.5013 113.26 31.4761 113.26 30.2292ZM119.343 43.6675V35.466H101.457V38.9572H115.213V43.6398H119.343V43.6675ZM109.103 30.2292C109.103 30.6449 108.824 30.9496 108.293 31.1713C107.763 31.3653 107.121 31.4761 106.452 31.4761C105.782 31.4761 105.168 31.3653 104.61 31.1713C104.024 30.9773 103.745 30.6726 103.745 30.2569C103.745 29.869 104.052 29.5642 104.638 29.3703C105.224 29.1763 105.838 29.0655 106.48 29.0655C107.149 29.0655 107.763 29.1486 108.321 29.3426C108.824 29.5365 109.103 29.8136 109.103 30.2292ZM142.252 21.0302H123.25V24.66H137.983C137.899 26.5164 137.759 28.262 137.536 29.8967C137.313 31.5315 137.062 33.1386 136.755 34.6902H140.689C141.219 32.5844 141.61 30.3401 141.833 27.9849C142.029 25.6574 142.168 23.33 142.252 21.0302Z" fill="white"/>
<path d="M137.006 10.5566C137.648 10.5566 138.178 10.6675 138.541 10.8614C138.876 11.0554 139.043 11.277 139.043 11.5541C139.043 11.8312 138.876 12.0252 138.541 12.2191C138.178 12.4131 137.676 12.5239 137.006 12.5239C136.364 12.5239 135.834 12.4131 135.499 12.2191C135.192 12.0529 135.025 11.8312 135.025 11.5541C135.025 11.277 135.192 11.0277 135.499 10.8614C135.834 10.6398 136.336 10.5566 137.006 10.5566ZM137.034 8.9773C135.722 8.9773 134.69 9.25438 133.937 9.78083C133.239 10.2519 132.904 10.8614 132.904 11.5541C132.904 12.2468 133.239 12.8287 133.937 13.3274C134.718 13.8539 135.75 14.131 137.034 14.131C138.345 14.131 139.378 13.8539 140.131 13.3274C140.829 12.8564 141.164 12.2468 141.164 11.5541C141.164 10.8614 140.829 10.2519 140.131 9.78083C139.35 9.22667 138.317 8.9773 137.034 8.9773ZM137.006 2.90929V8.58939H138.624V6.67755H139.378V8.58939H141.052V2.90929H139.378V4.82113H138.624V2.90929H137.006ZM136.392 3.02012H132.318V6.92692C132.318 7.42566 132.43 7.78586 132.653 8.06294C132.904 8.34002 133.239 8.45085 133.685 8.45085H136.364V3.02012H136.392ZM134.662 6.59443H133.965V4.87654H134.662V6.59443ZM125.984 9.83624H123.724V12.2468C123.724 12.7456 123.836 13.1058 124.087 13.3828C124.31 13.6599 124.673 13.7708 125.119 13.7708H131.76V11.9143H125.984V9.83624ZM128.719 6.78838C128.747 6.64984 128.774 6.5113 128.802 6.34506C128.83 6.20652 128.83 6.06798 128.83 5.92944V5.7909H129.388V6.78838H128.719ZM129.388 3.90677H128.495V4.40551C128.272 3.90677 127.937 3.49115 127.491 3.21407C127.017 2.90929 126.458 2.74304 125.817 2.74304C124.868 2.74304 124.142 3.07554 123.584 3.74052C123.082 4.3501 122.831 5.0705 122.831 5.92944C122.831 6.78838 123.082 7.50879 123.584 8.11836C124.142 8.78334 124.868 9.11584 125.817 9.11584C126.458 9.11584 127.017 8.94959 127.491 8.6171C127.937 8.31231 128.244 7.9244 128.468 7.42566V8.64481H129.36V10.6952H131.621V2.937H129.36V3.90677H129.388ZM125.845 4.3501C126.124 4.3501 126.347 4.51634 126.514 4.82113C126.654 5.09821 126.738 5.48611 126.738 5.92944C126.738 6.37277 126.654 6.73297 126.514 7.03775C126.347 7.34254 126.124 7.50879 125.845 7.50879C125.566 7.50879 125.342 7.34254 125.203 7.03775C125.063 6.73297 124.98 6.37277 124.98 5.92944C124.98 5.48611 125.063 5.09821 125.203 4.82113C125.342 4.51634 125.566 4.3501 125.845 4.3501ZM122.664 11.2493H113.93V13.2997H122.664V11.2493ZM122.887 7.64732C121.854 7.34254 121.045 6.87151 120.431 6.23423C119.762 5.48612 119.399 4.51634 119.399 3.35261V2.90929H117.167V3.35261C117.167 4.51634 116.832 5.48612 116.134 6.23423C115.548 6.87151 114.739 7.34254 113.707 7.64732L114.572 9.28208C115.437 9.03271 116.218 8.64481 116.943 8.14606C117.613 7.67503 118.06 7.23171 118.283 6.78838C118.534 7.23171 118.98 7.70274 119.65 8.14606C120.348 8.64481 121.157 9.03271 122.022 9.28208L122.887 7.64732ZM110.833 13.7985H113.093V2.90929H110.833V13.7985ZM104.582 3.02012V11.1939C104.582 11.6927 104.694 12.0529 104.917 12.3299C105.168 12.607 105.503 12.7179 105.949 12.7179H109.968V3.02012H107.791V5.90173H106.759V3.02012H104.582ZM107.791 10.8614H106.759V7.78586H107.791V10.8614ZM101.541 7.67503V11.471C100.815 10.8891 100.285 10.2242 99.9223 9.50375C99.42 8.50627 99.1968 7.23171 99.1968 5.68007V2.90929H96.9366V5.68007C96.9366 7.25942 96.6855 8.58939 96.1553 9.58687C95.7926 10.335 95.2345 10.9723 94.4811 11.5541L95.653 12.9949C96.1553 12.6347 96.6576 12.1637 97.1598 11.5264C97.6621 10.8891 97.9411 10.3904 98.0527 9.97478C98.1644 10.3627 98.4713 10.8891 98.9457 11.5264C99.4479 12.1637 99.9502 12.6624 100.452 12.9949L101.513 11.7204V13.7708H103.773V2.90929H101.513V5.81861H100.229V7.70274H101.541V7.67503ZM87.8959 11.1385C88.5656 11.1385 89.0957 11.2216 89.4306 11.3602C89.7375 11.4987 89.877 11.665 89.877 11.8866C89.877 12.0806 89.7375 12.2468 89.4306 12.3854C89.0957 12.5239 88.5935 12.5793 87.8959 12.5793C87.1983 12.5793 86.696 12.5239 86.3333 12.3854C86.0264 12.2745 85.8868 12.1083 85.8868 11.8866C85.8868 11.665 86.0264 11.471 86.3333 11.3602C86.696 11.1939 87.2262 11.1385 87.8959 11.1385ZM87.8959 9.61458C86.5286 9.61458 85.4404 9.83624 84.7149 10.3073C84.0452 10.7229 83.7104 11.2493 83.7104 11.8866C83.7104 12.4962 84.0452 12.9949 84.7149 13.4105C85.4683 13.8816 86.5286 14.1032 87.8959 14.1032C89.2632 14.1032 90.3235 13.8816 91.0769 13.4105C91.7466 13.0226 92.0814 12.4962 92.0814 11.8866C92.0814 11.2216 91.7466 10.6952 91.0769 10.3073C90.3514 9.83624 89.2911 9.61458 87.8959 9.61458ZM87.0588 7.01004C87.2541 6.95463 87.4494 6.87151 87.5889 6.76067C87.7285 6.67755 87.8401 6.59443 87.8959 6.4836C87.9517 6.56672 88.0354 6.67755 88.1749 6.76067C88.2865 6.8438 88.454 6.92692 88.6493 7.01004H87.0588ZM89.0399 7.09317C89.4027 7.204 89.8212 7.28712 90.2956 7.34254C90.7978 7.39795 91.3559 7.42566 91.9698 7.42566L92.5 6.01256C91.4954 6.04027 90.7141 5.92944 90.1003 5.70778C89.5701 5.51382 89.2632 5.29216 89.2074 5.01508H92.0535V3.40803H89.0678V2.82617H86.8356V3.40803H83.8499V5.01508H86.6681C86.5844 5.29216 86.3054 5.51382 85.7752 5.70778C85.1613 5.92944 84.38 6.04027 83.3755 6.01256L83.9057 7.42566C84.4917 7.42566 85.0497 7.39795 85.552 7.34254C86.0264 7.28712 86.4449 7.204 86.8077 7.09317V7.95211H83.5708V9.36521H92.3046V7.95211H89.0678V7.09317H89.0399ZM74.2511 11.2493V13.2997H82.9849V11.2493H79.7481V9.22667H77.5158V11.2493H74.2511ZM76.8461 2.90929H74.5859V7.25942C74.5859 7.75816 74.6975 8.11836 74.9208 8.39543C75.1719 8.67251 75.5068 8.78334 75.9532 8.78334H82.65V6.76067H76.8461V2.90929ZM73.693 10.2796V8.39543H64.9592V10.2796H68.196V13.7985H70.4283V10.2796H73.693ZM70.5957 4.59947H73.4419V2.90929H65.2383V4.59947H68.0565C68.0007 5.0705 67.6659 5.48612 66.9962 5.81861C66.3823 6.12339 65.6289 6.28964 64.7639 6.34506L65.2941 7.86899C66.2149 7.86899 67.0799 7.73045 67.8612 7.45337C68.6425 7.204 69.1168 6.89921 69.3122 6.56672C69.5354 6.92692 70.0377 7.204 70.7911 7.45337C71.5724 7.73045 72.4374 7.84128 73.3582 7.86899L73.8883 6.34506C72.9954 6.31735 72.242 6.12339 71.6282 5.81861C70.9864 5.48612 70.6236 5.0705 70.5957 4.59947ZM58.4298 9.83624H56.1696V12.2468C56.1696 12.7456 56.2813 13.1058 56.5324 13.3828C56.7556 13.6599 57.1184 13.7708 57.5648 13.7708H64.2058V11.9143H58.4298V9.83624ZM61.8619 10.6675H64.1221V2.90929H61.8619V10.6675ZM58.8205 7.39795H57.788V4.90425H58.8205V7.39795ZM60.9969 3.02012H55.6116V7.73045C55.6116 8.22919 55.7232 8.58939 55.9464 8.86647C56.1975 9.14355 56.5324 9.25438 56.9788 9.25438H60.9969V3.02012Z" fill="white"/>
</g>
<defs>
<clipPath id="clip0_930_3903">
<rect width="296" height="44" fill="white"/>
</clipPath>
</defs>
</svg>
