<svg width="150" height="64" viewBox="0 0 150 64" fill="none" xmlns="http://www.w3.org/2000/svg">
<g clip-path="url(#clip0_624_339)">
<path d="M8.65679 53.3669H8.19957C8.46305 53.7681 8.60092 54.2375 8.59583 54.7162C8.58453 55.3886 8.31151 56.0308 7.83379 56.5085C7.59581 56.7413 7.31689 56.929 7.01079 57.0623C6.68975 57.1982 6.34381 57.2668 5.99473 57.2637C5.64579 57.2653 5.30014 57.1968 4.97868 57.0623C4.67258 56.929 4.39366 56.7413 4.15568 56.5085C3.91553 56.2809 3.7253 56.0067 3.59685 55.703C3.45974 55.3848 3.39055 55.042 3.39364 54.696C3.39104 54.454 3.42529 54.213 3.49524 53.9811C3.56838 53.7591 3.66726 53.5462 3.7899 53.3468H3.34283V51.5746H5.19205V50.3663H7.01079V51.5746H8.65679V53.3669ZM6.01506 55.4714C6.11306 55.4714 6.20995 55.4508 6.2993 55.4108C6.38864 55.3709 6.46839 55.3126 6.53324 55.2398C6.60515 55.1727 6.66216 55.0915 6.70064 55.0013C6.73913 54.9112 6.75824 54.8141 6.75677 54.7162C6.75922 54.6152 6.74063 54.5148 6.70217 54.4212C6.66371 54.3277 6.6062 54.243 6.53324 54.1724C6.46669 54.1024 6.38639 54.0467 6.29727 54.0086C6.20815 53.9705 6.11211 53.9509 6.01506 53.9509C5.91412 53.9509 5.81419 53.9708 5.72107 54.0094C5.62795 54.0479 5.54348 54.1045 5.47259 54.1757C5.40169 54.2469 5.34577 54.3313 5.30808 54.4241C5.27039 54.5169 5.25167 54.6162 5.25302 54.7162C5.25816 54.9149 5.3401 55.104 5.48191 55.2445C5.62372 55.3851 5.81457 55.4663 6.01506 55.4714ZM11.6237 61.7948C11.6257 61.912 11.6044 62.0283 11.5608 62.1372C11.5172 62.2461 11.4522 62.3454 11.3697 62.4292C11.1949 62.596 10.962 62.6897 10.7194 62.691H9.82526V60.073C9.83369 60.0129 9.82795 59.9516 9.80846 59.894C9.78898 59.8365 9.75629 59.7842 9.71297 59.7412C9.66965 59.6983 9.61687 59.6659 9.55878 59.6466C9.50069 59.6273 9.43888 59.6216 9.37819 59.63H7.10223V57.8477H11.6338L11.6237 61.7948ZM13.1986 55.3002H11.8777V57.314H10.0691V51.5746H11.8675V53.5884H13.1986V55.3002Z" fill="#4C4B4D"/>
<path d="M14.2146 57.3141V51.0711H16.0537V52.36H17.212V51.0711H18.1264C18.2469 51.0702 18.3663 51.0928 18.4779 51.1377C18.5895 51.1827 18.691 51.249 18.7767 51.3329C18.8646 51.4159 18.9344 51.516 18.9816 51.6268C19.0288 51.7377 19.0524 51.857 19.051 51.9774V57.3141H14.2146ZM17.212 54.2127H16.0333V55.5117H17.1916L17.212 54.2127ZM22.2109 57.3141H20.4125V51.5746H22.2109V57.3141Z" fill="#4C4B4D"/>
<path d="M29.6993 53.528V55.3908H27.4741V57.5859H25.6452V55.3908H23.3997V53.528H25.6452V51.3229H27.4741V53.528H29.6993Z" fill="#4C4B4D"/>
<path d="M37.0758 57.0724V58.8546H30.8575V57.0724H31.5586V55.3002H33.357V57.0522H33.9159V55.3002H35.2469V53.82C35.2553 53.7586 35.2492 53.696 35.2292 53.6372C35.2092 53.5785 35.1758 53.5251 35.1315 53.4812C35.0873 53.4374 35.0334 53.4043 34.9741 53.3844C34.9148 53.3646 34.8517 53.3586 34.7897 53.3669H30.9287V51.5847H37.025V55.2297C37.0277 55.3473 37.0065 55.4642 36.9627 55.5735C36.9189 55.6828 36.8533 55.7822 36.7698 55.8658C36.6864 55.9495 36.5868 56.0156 36.477 56.0603C36.3673 56.1049 36.2495 56.1273 36.1309 56.1259H35.7041V57.0724H37.0758Z" fill="#4C4B4D"/>
<path d="M38.9555 59.4689V58.8647H38.0614V57.0724H44.2796V58.8647H43.4668V59.4689H44.1475V63.1139C44.1506 63.3503 44.0593 63.5783 43.8935 63.7483C43.8105 63.8328 43.7108 63.8997 43.6008 63.9447C43.4907 63.9897 43.3725 64.012 43.2534 64.0101H42.3593V61.7042C42.3677 61.6428 42.3616 61.5802 42.3416 61.5215C42.3216 61.4627 42.2882 61.4093 42.2439 61.3655C42.1997 61.3216 42.1458 61.2885 42.0865 61.2686C42.0272 61.2488 41.9641 61.2428 41.9021 61.2511H37.9801V59.4689H38.9555ZM41.1502 56.0453C40.7718 56.0448 40.3973 55.9698 40.0485 55.8246C39.6996 55.6794 39.3833 55.4669 39.1181 55.1995C38.8549 54.9395 38.6445 54.6319 38.4983 54.2933C38.3472 53.9398 38.2712 53.5594 38.2748 53.1756C38.2702 52.795 38.3464 52.4176 38.4983 52.068C38.6445 51.7294 38.8549 51.4218 39.1181 51.1618C39.3785 50.9033 39.6852 50.695 40.0224 50.5475C40.7447 50.2521 41.5557 50.2521 42.278 50.5475C42.6169 50.6975 42.9264 50.9054 43.1925 51.1618C43.4556 51.4218 43.666 51.7294 43.8123 52.068C43.9642 52.4176 44.0403 52.795 44.0358 53.1756C44.0394 53.5594 43.9633 53.9398 43.8123 54.2933C43.666 54.6319 43.4556 54.9395 43.1925 55.1995C42.9291 55.4592 42.6189 55.6675 42.278 55.8137C41.922 55.9666 41.5382 56.0454 41.1502 56.0453ZM41.1502 52.3298C40.9229 52.3298 40.7047 52.4186 40.5431 52.5769C40.3814 52.7352 40.2892 52.9504 40.2865 53.1756C40.2882 53.4022 40.3794 53.6191 40.5406 53.7798C40.7037 53.9367 40.9228 54.0235 41.1502 54.0214C41.2614 54.0234 41.3719 54.003 41.4749 53.9614C41.5779 53.9199 41.6714 53.8581 41.7497 53.7798C41.8313 53.7015 41.896 53.6076 41.9397 53.5037C41.9833 53.3998 42.0051 53.2881 42.0037 53.1756C42.001 52.9521 41.9103 52.7385 41.7508 52.5804C41.5913 52.4224 41.3757 52.3324 41.1502 52.3298ZM40.7539 59.4689H41.6481V58.8546H40.7336L40.7539 59.4689Z" fill="#4C4B4D"/>
<path d="M130.502 53.6992V37.9207H124.253V53.6992C124.253 55.3416 124.912 56.9167 126.083 58.078C127.255 59.2393 128.845 59.8918 130.502 59.8918H145.336V53.6992H130.502Z" fill="#D62D71"/>
<path d="M150 4.3902H143.751V38.3033H150V4.3902Z" fill="#D62D71"/>
<path d="M129.547 19.8364V13.6438H111.075V19.8364H112.589V26.8848H111.075V33.1479H129.547V26.9352H128.013V19.8867L129.547 19.8364ZM121.774 26.8848H118.868V19.8364H121.804L121.774 26.8848Z" fill="#D62D71"/>
<path d="M136.222 22.4141H132.717V28.6067H136.222V38.3033H142.512V4.34991H136.222V22.4141Z" fill="#D62D71"/>
<path d="M96.0577 40.579C94.0481 40.579 92.0837 41.1695 90.4128 42.2759C88.7419 43.3824 87.4396 44.955 86.6706 46.7949C85.9016 48.6348 85.7003 50.6594 86.0924 52.6126C86.4844 54.5659 87.4521 56.36 88.8731 57.7682C90.2941 59.1764 92.1045 60.1354 94.0755 60.524C96.0464 60.9125 98.0894 60.7131 99.946 59.951C101.803 59.1888 103.389 57.8982 104.506 56.2424C105.622 54.5865 106.218 52.6397 106.218 50.6482C106.218 47.9777 105.148 45.4165 103.242 43.5282C101.337 41.6398 98.7524 40.579 96.0577 40.579ZM96.0577 54.4141C95.3045 54.4121 94.5689 54.189 93.9436 53.7728C93.3184 53.3567 92.8316 52.7663 92.5448 52.0762C92.258 51.386 92.1839 50.6271 92.3321 49.8953C92.4803 49.1635 92.844 48.4917 93.3772 47.9646C93.9105 47.4375 94.5894 47.0789 95.3283 46.934C96.0671 46.7891 96.8327 46.8645 97.5283 47.1506C98.2239 47.4367 98.8184 47.9206 99.2366 48.5414C99.6548 49.1621 99.8781 49.8917 99.8781 50.6381C99.8754 51.6405 99.4717 52.6009 98.7555 53.3088C98.0393 54.0166 97.0692 54.4141 96.0577 54.4141Z" fill="#D62D71"/>
<path d="M65.19 53.6992V39.6929H58.921V53.6992C58.921 54.5124 59.0826 55.3176 59.3966 56.069C59.7106 56.8203 60.1709 57.5029 60.7512 58.078C61.3314 58.653 62.0203 59.1091 62.7784 59.4204C63.5365 59.7316 64.3491 59.8917 65.1697 59.8917H80.0142V53.6992H65.19Z" fill="#D62D71"/>
<path d="M72.4853 7.01825V11.5997H66.5109V7.01825H60.2621V22.3638C60.2648 24.0053 60.924 25.5789 62.0953 26.7396C63.2666 27.9004 64.8544 28.5537 66.5109 28.5563H72.4853C74.1408 28.5563 75.7286 27.9053 76.9002 26.7461C78.0718 25.587 78.7313 24.0144 78.734 22.3738V7.01825H72.4853ZM72.4853 22.3638H66.5109V17.7923H72.4853V22.3638Z" fill="#D62D71"/>
<path d="M99.1669 30.9025V27.4286H92.9181V30.9025H85.2368V37.1353H106.848V30.9025H99.1669Z" fill="#D62D71"/>
<path d="M72.8714 36.2089V39.6828H66.6227V36.2089H58.9413V29.9761H80.5527V36.2089H72.8714Z" fill="#D62D71"/>
<path d="M96.0577 11.7105C94.286 11.7045 92.5524 12.2197 91.0763 13.1908C89.6002 14.1619 88.4482 15.5453 87.766 17.1657C87.0838 18.7862 86.9022 20.5708 87.2441 22.2935C87.5861 24.0163 88.4362 25.5998 89.6868 26.8435C90.9375 28.0871 92.5324 28.935 94.2697 29.2797C96.0069 29.6245 97.8083 29.4506 99.4457 28.7801C101.083 28.1095 102.483 26.9725 103.468 25.5131C104.453 24.0536 104.979 22.3373 104.979 20.5815C104.981 18.2332 104.043 15.9798 102.371 14.3165C100.698 12.6531 98.4273 11.7158 96.0577 11.7105ZM96.0577 23.2096C95.5337 23.2076 95.022 23.0517 94.5872 22.7618C94.1524 22.4718 93.8141 22.0606 93.6149 21.5802C93.4158 21.0999 93.3647 20.5718 93.4682 20.0626C93.5716 19.5535 93.825 19.0862 94.1963 18.7196C94.5676 18.3531 95.0401 18.1038 95.5542 18.0032C96.0684 17.9026 96.6011 17.9552 97.085 18.1544C97.569 18.3537 97.9826 18.6905 98.2736 19.1225C98.5645 19.5544 98.7198 20.0621 98.7198 20.5815C98.7171 21.2794 98.4354 21.9479 97.9365 22.4404C97.4376 22.933 96.762 23.2096 96.0577 23.2096Z" fill="#D62D71"/>
<path d="M99.1669 7.81374V3.64508H92.9181V7.81374H86.8116V14.0466H105.284V7.81374H99.1669Z" fill="#D62D71"/>
<path d="M47.6224 23.6023C47.6224 28.2703 46.2256 32.8336 43.6086 36.715C40.9917 40.5963 37.2721 43.6215 32.9202 45.4079C28.5684 47.1943 23.7797 47.6617 19.1598 46.751C14.5399 45.8403 10.2962 43.5924 6.96545 40.2916C3.63468 36.9907 1.3664 32.7852 0.447441 28.2068C-0.471516 23.6284 0.000126448 18.8828 1.80273 14.5701C3.60532 10.2573 6.65792 6.57115 10.5745 3.9777C14.4911 1.38425 19.0957 0 23.8061 0C30.1226 0 36.1804 2.48666 40.6468 6.91294C45.1132 11.3392 47.6224 17.3426 47.6224 23.6023Z" fill="#E9E7E6"/>
<mask id="mask0_624_339" style="mask-type:luminance" maskUnits="userSpaceOnUse" x="-1" y="0" width="49" height="48">
<path d="M-0.0101907 23.6023C-0.0101907 28.2704 1.38661 32.8336 4.00358 36.715C6.62055 40.5964 10.3401 43.6215 14.692 45.4079C19.0439 47.1943 23.8325 47.6617 28.4524 46.751C33.0723 45.8403 37.316 43.5924 40.6468 40.2916C43.9775 36.9908 46.2458 32.7852 47.1648 28.2068C48.0837 23.6285 47.6121 18.8828 45.8095 14.5701C44.0069 10.2573 40.9543 6.57115 37.0377 3.9777C33.1212 1.38425 28.5165 2.1499e-06 23.8061 2.1499e-06C20.6781 -0.00132117 17.5806 0.608266 14.6904 1.79392C11.8003 2.97958 9.17428 4.71806 6.96246 6.90999C4.75065 9.10193 2.99641 11.7044 1.8 14.5685C0.603589 17.4327 -0.011526 20.5024 -0.0101907 23.6023Z" fill="white"/>
</mask>
<g mask="url(#mask0_624_339)">
<g style="mix-blend-mode:multiply">
<mask id="mask1_624_339" style="mask-type:luminance" maskUnits="userSpaceOnUse" x="18" y="10" width="13" height="12">
<path d="M30.0345 10.039H18.1263V21.8401H30.0345V10.039Z" fill="white"/>
</mask>
<g mask="url(#mask1_624_339)">
<mask id="mask2_624_339" style="mask-type:luminance" maskUnits="userSpaceOnUse" x="18" y="10" width="13" height="12">
<path d="M24.0759 10.0488L18.1271 15.9442L24.0759 21.8395L30.0247 15.9442L24.0759 10.0488Z" fill="white"/>
</mask>
<g mask="url(#mask2_624_339)">
<path d="M22.658 11.5695L19.6098 17.4499H28.4698L25.4216 11.5695C25.2883 11.3091 25.0848 11.0905 24.8337 10.9377C24.5826 10.785 24.2938 10.7041 23.9992 10.7041C23.7045 10.7041 23.4157 10.785 23.1646 10.9377C22.9135 11.0905 22.71 11.3091 22.5767 11.5695" fill="#A8BFBF"/>
</g>
</g>
</g>
<path d="M21.1237 26.1095H15.2205V47.6174H21.1237V26.1095Z" fill="#BB296A"/>
<path d="M27.027 26.1095H21.1237V47.6174H27.027V26.1095Z" fill="#DE357A"/>
<path d="M32.9404 26.1095H27.0372V47.6174H32.9404V26.1095Z" fill="#E64B9A"/>
<path d="M25.5029 11.5695L28.5511 17.45H19.6505L22.6986 11.5695C22.832 11.3092 23.0354 11.0905 23.2865 10.9378C23.5376 10.785 23.8265 10.7042 24.1211 10.7042C24.4157 10.7042 24.7046 10.785 24.9556 10.9378C25.2067 11.0905 25.4102 11.3092 25.5436 11.5695" fill="#DE357A"/>
<path d="M15.2205 26.1095H20.6868L22.3836 17.45H19.6505L15.2205 26.1095Z" fill="#EFAF84"/>
<path d="M20.6868 26.1095H32.9404L28.5104 17.45H22.3836L20.6868 26.1095Z" fill="#F5C7A3"/>
</g>
</g>
<defs>
<clipPath id="clip0_624_339">
<rect width="150" height="64" fill="white"/>
</clipPath>
</defs>
</svg>
